<svg width="326" height="297" viewBox="0 0 326 297" fill="none" xmlns="http://www.w3.org/2000/svg">
<path fill-rule="evenodd" clip-rule="evenodd" d="M148.499 0.0432376C182.455 1.66714 191.743 52.359 220.354 71.396C252.043 92.4822 306.388 79.9669 322.009 115.496C337.218 150.087 305.435 188.128 285.79 220.226C270.179 245.732 247.783 264.816 222.007 278.89C199.279 291.3 174.163 294.116 148.499 295.189C121.686 296.31 92.0103 301.937 70.5542 285.223C49.1752 268.568 50.8123 235.869 39.8707 210.567C27.0217 180.854 -5.96451 156.008 0.939461 124.24C7.80214 92.6631 47.4271 84.6832 71.6621 64.2852C97.8477 42.2454 114.81 -1.56784 148.499 0.0432376Z" fill="#110E9F"/>
<path d="M172.534 119.85C183.112 119.85 191.687 111.299 191.687 100.751C191.687 90.2037 183.112 81.6531 172.534 81.6531C161.957 81.6531 153.382 90.2037 153.382 100.751C153.382 111.299 161.957 119.85 172.534 119.85Z" fill="#A0616A"/>
<path d="M158.24 110.3C158.24 110.3 161.848 137.426 156.297 140.47C150.745 143.515 189.327 143.792 189.327 143.792C189.327 143.792 180.723 120.265 184.609 113.068L158.24 110.3Z" fill="#A0616A"/>
<path d="M217.5 143.929L214.292 158.499L207.507 189.324L207.304 191.012L204.962 210.556L203.405 223.539L202.36 232.26C196.011 235.514 191.409 237.761 191.409 237.761C191.409 237.761 191.013 235.782 190.375 233.249C185.918 234.582 177.673 236.792 170.685 237.233C173.229 240.062 174.399 242.718 172.813 244.679C168.026 250.59 148.263 238.207 141.351 233.59C141.19 234.695 141.129 235.813 141.168 236.929L135.879 232.873L136.402 223.539L137.285 207.746L138.395 187.94C138.045 187.092 137.752 186.222 137.517 185.335C135.897 179.59 133.931 168.119 132.423 158.499C131.209 150.757 130.297 144.215 130.105 142.822C130.079 142.641 130.066 142.547 130.066 142.547L159.348 129.645C161.429 134.457 171.146 135.904 171.146 135.904C179.196 135.351 185.507 131.117 185.507 131.117L217.5 143.929Z" fill="#D0CDE1"/>
<path d="M193.63 232.226C193.63 232.226 192.391 232.649 190.375 233.249C185.918 234.582 177.673 236.792 170.685 237.233C164.669 237.618 159.585 236.693 158.655 232.779C158.256 231.096 158.822 229.712 160.053 228.574C163.731 225.175 173.336 223.957 180.954 223.539C183.106 223.422 185.095 223.367 186.752 223.346C189.565 223.31 191.409 223.367 191.409 223.367L191.453 223.539L193.63 232.226Z" fill="#A0616A"/>
<path d="M156.602 82.6861L153.021 81.2566C153.021 81.2566 160.508 73.0364 170.926 73.7513L167.996 70.5347C167.996 70.5347 175.158 67.6755 181.668 75.1808C185.091 79.1262 189.051 83.7638 191.52 88.9879H195.355L193.754 92.5023L199.356 96.0167L193.606 95.3854C193.949 97.3099 194.002 99.2747 193.762 101.215C193.516 103.155 192.523 104.924 190.993 106.149C190.993 106.149 186.552 96.982 186.552 95.5524V99.1263C186.552 99.1263 182.971 95.9098 182.971 93.7654L181.017 96.2672L180.041 92.3358L167.996 96.2672L169.949 93.0506L162.461 94.1228L165.391 90.1914C165.391 90.1914 156.927 94.8376 156.602 98.769C156.276 102.7 153.799 106.425 153.799 106.425C153.799 106.425 147.161 88.0471 156.602 82.6861Z" fill="#2F2E41"/>
<path d="M238.318 210.911C236.367 213.02 231.533 216.197 225.673 219.635C223.493 220.913 221.173 222.23 218.805 223.539C213.156 226.663 207.241 229.759 202.36 232.26C196.011 235.514 191.409 237.761 191.409 237.761C191.409 237.761 191.013 235.781 190.375 233.249C189.52 229.86 188.234 225.479 186.893 223.539C186.846 223.471 186.799 223.409 186.752 223.346C186.361 222.835 185.968 222.536 185.58 222.536L204.962 210.556L213.338 205.377L207.304 191.012L199.735 172.993L204.303 158.499L208.895 143.929H217.5C217.5 143.929 220.35 150.131 223.993 158.779C224.538 160.073 225.1 161.421 225.673 162.813C233.169 180.992 242.514 206.379 238.318 210.911Z" fill="#D0CDE1"/>
<path d="M172.813 244.679C168.026 250.59 148.263 238.207 141.351 233.59C139.845 232.584 138.949 231.948 138.949 231.948L145.273 223.539L147.276 220.877C147.276 220.877 149.068 221.825 151.717 223.367C151.813 223.424 151.909 223.481 152.008 223.539C154.292 224.876 157.16 226.624 160.053 228.574C164.046 231.268 168.083 234.34 170.685 237.233C173.229 240.062 174.399 242.718 172.813 244.679Z" fill="#A0616A"/>
<path d="M151.717 223.367C151.01 223.365 150.304 223.422 149.607 223.539C143.619 224.565 141.853 229.969 141.351 233.59C141.19 234.695 141.129 235.813 141.168 236.929L135.879 232.873L133.951 231.395C129.313 229.782 125.18 226.918 121.596 223.539C118.487 220.556 115.698 217.258 113.275 213.698C110.861 210.19 108.709 206.509 106.836 202.686C106.314 201.619 106.033 200.451 106.014 199.264C105.994 198.077 106.237 196.9 106.724 195.817L113.275 181.26L122.849 159.984C122.919 159.478 122.996 158.983 123.08 158.499C124.979 147.643 130.066 142.822 130.066 142.822H133.951L136.551 158.499L139.78 177.975L137.517 185.335L132.287 202.333L137.285 207.745L151.717 223.367Z" fill="#D0CDE1"/>
<path d="M156.115 177.99L159.437 181.855C160.671 181.62 161.96 181.344 163.287 181.035L162.333 177.99L164.666 180.704C178.729 177.255 196.161 170.549 196.161 170.549C196.161 170.549 177.342 171.925 163.29 168.864C157.073 167.51 150.677 170.583 148.125 176.396C146.643 179.775 146.875 182.703 152.135 182.703C153.912 182.673 155.684 182.506 157.436 182.206L156.115 177.99Z" fill="white"/>
<path d="M231.846 241.511V243.087C231.847 243.52 231.766 243.949 231.609 244.352C231.539 244.532 231.454 244.705 231.356 244.871C231.046 245.391 230.605 245.821 230.078 246.12C229.55 246.419 228.954 246.575 228.348 246.575H112.045C111.439 246.575 110.843 246.419 110.315 246.12C109.788 245.821 109.348 245.391 109.037 244.871C108.939 244.705 108.854 244.532 108.784 244.352C108.627 243.949 108.547 243.52 108.547 243.087V241.511C108.547 241.053 108.638 240.599 108.813 240.176C108.989 239.753 109.247 239.368 109.572 239.044C109.897 238.72 110.282 238.463 110.707 238.288C111.131 238.113 111.586 238.023 112.045 238.023H118.749V237.288C118.749 237.269 118.753 237.25 118.76 237.232C118.768 237.214 118.778 237.198 118.792 237.185C118.805 237.171 118.821 237.161 118.839 237.153C118.857 237.146 118.876 237.142 118.895 237.142H122.393C122.412 237.142 122.431 237.146 122.449 237.153C122.466 237.161 122.483 237.171 122.496 237.185C122.51 237.198 122.52 237.214 122.528 237.232C122.535 237.25 122.539 237.269 122.539 237.288V238.023H124.724V237.288C124.724 237.269 124.728 237.25 124.735 237.232C124.742 237.214 124.753 237.198 124.766 237.185C124.78 237.171 124.796 237.161 124.814 237.153C124.832 237.146 124.851 237.142 124.87 237.142H128.367C128.387 237.142 128.406 237.146 128.423 237.153C128.441 237.161 128.457 237.171 128.471 237.185C128.484 237.198 128.495 237.214 128.502 237.232C128.51 237.25 128.513 237.269 128.513 237.288V238.023H130.701V237.288C130.701 237.269 130.705 237.25 130.712 237.232C130.719 237.214 130.73 237.198 130.744 237.185C130.757 237.171 130.773 237.161 130.791 237.153C130.809 237.146 130.828 237.142 130.847 237.142H134.345C134.364 237.142 134.383 237.146 134.401 237.153C134.418 237.161 134.434 237.171 134.448 237.185C134.462 237.198 134.472 237.214 134.48 237.232C134.487 237.25 134.491 237.269 134.491 237.288V238.023H136.676V237.288C136.676 237.269 136.679 237.25 136.687 237.232C136.694 237.214 136.705 237.198 136.718 237.185C136.732 237.171 136.748 237.161 136.766 237.153C136.783 237.146 136.802 237.142 136.822 237.142H140.319C140.339 237.142 140.358 237.146 140.375 237.153C140.393 237.161 140.409 237.171 140.423 237.185C140.436 237.198 140.447 237.214 140.454 237.232C140.462 237.25 140.465 237.269 140.465 237.288V238.023H142.65V237.288C142.65 237.269 142.654 237.25 142.661 237.232C142.669 237.214 142.68 237.198 142.693 237.185C142.707 237.171 142.723 237.161 142.74 237.153C142.758 237.146 142.777 237.142 142.796 237.142H146.294C146.313 237.142 146.332 237.146 146.35 237.153C146.368 237.161 146.384 237.171 146.397 237.185C146.411 237.198 146.422 237.214 146.429 237.232C146.436 237.25 146.44 237.269 146.44 237.288V238.023H148.628V237.288C148.628 237.269 148.631 237.25 148.639 237.232C148.646 237.214 148.657 237.198 148.67 237.185C148.684 237.171 148.7 237.161 148.718 237.153C148.735 237.146 148.754 237.142 148.774 237.142H152.271C152.29 237.142 152.309 237.146 152.327 237.153C152.345 237.161 152.361 237.171 152.375 237.185C152.388 237.198 152.399 237.214 152.406 237.232C152.413 237.25 152.417 237.269 152.417 237.288V238.023H154.602V237.288C154.602 237.269 154.606 237.25 154.613 237.232C154.621 237.214 154.631 237.198 154.645 237.185C154.659 237.171 154.675 237.161 154.692 237.153C154.71 237.146 154.729 237.142 154.748 237.142H182.147C182.166 237.142 182.185 237.146 182.203 237.153C182.221 237.161 182.237 237.171 182.25 237.185C182.264 237.198 182.275 237.214 182.282 237.232C182.289 237.25 182.293 237.269 182.293 237.288V238.023H184.481V237.288C184.481 237.269 184.484 237.25 184.492 237.232C184.499 237.214 184.51 237.198 184.523 237.185C184.537 237.171 184.553 237.161 184.571 237.153C184.588 237.146 184.607 237.142 184.627 237.142H188.124C188.163 237.143 188.2 237.158 188.227 237.185C188.254 237.213 188.27 237.249 188.27 237.288V238.023H190.455V237.288C190.455 237.269 190.459 237.25 190.466 237.232C190.474 237.214 190.485 237.198 190.498 237.185C190.512 237.171 190.528 237.161 190.545 237.153C190.563 237.146 190.582 237.142 190.601 237.142H194.099C194.118 237.142 194.137 237.146 194.155 237.153C194.173 237.161 194.189 237.171 194.202 237.185C194.216 237.198 194.227 237.214 194.234 237.232C194.241 237.25 194.245 237.269 194.245 237.288V238.023H196.43V237.288C196.43 237.269 196.434 237.25 196.441 237.232C196.448 237.214 196.459 237.198 196.473 237.185C196.486 237.171 196.502 237.161 196.52 237.153C196.538 237.146 196.557 237.142 196.576 237.142H200.074C200.093 237.142 200.112 237.146 200.13 237.153C200.147 237.161 200.163 237.171 200.177 237.185C200.191 237.198 200.201 237.214 200.209 237.232C200.216 237.25 200.22 237.269 200.22 237.288V238.023H202.407V237.288C202.407 237.269 202.411 237.25 202.418 237.232C202.426 237.214 202.436 237.198 202.45 237.185C202.464 237.171 202.48 237.161 202.497 237.153C202.515 237.146 202.534 237.142 202.553 237.142H206.051C206.089 237.143 206.126 237.158 206.153 237.186C206.18 237.213 206.194 237.25 206.194 237.288V238.023H208.382V237.288C208.382 237.269 208.386 237.25 208.393 237.232C208.4 237.214 208.411 237.198 208.425 237.185C208.438 237.171 208.454 237.161 208.472 237.153C208.49 237.146 208.509 237.142 208.528 237.142H212.026C212.045 237.142 212.064 237.146 212.082 237.153C212.099 237.161 212.115 237.171 212.129 237.185C212.142 237.198 212.153 237.214 212.16 237.232C212.168 237.25 212.172 237.269 212.172 237.288V238.023H214.357V237.288C214.357 237.269 214.36 237.25 214.368 237.232C214.375 237.214 214.386 237.198 214.399 237.185C214.413 237.171 214.429 237.161 214.447 237.153C214.464 237.146 214.483 237.142 214.503 237.142H218C218.019 237.142 218.038 237.146 218.056 237.153C218.074 237.161 218.09 237.171 218.104 237.185C218.117 237.198 218.128 237.214 218.135 237.232C218.142 237.25 218.146 237.269 218.146 237.288V238.023H228.348C228.807 238.023 229.262 238.113 229.687 238.288C230.111 238.463 230.497 238.72 230.821 239.044C231.146 239.368 231.404 239.753 231.58 240.176C231.755 240.599 231.846 241.053 231.846 241.511Z" fill="#3F3D56"/>
<path d="M265.665 244.352H74.7571V244.871H265.665V244.352Z" fill="#3F3D56"/>
<path d="M222.481 175.121H179.132V174.23H159.475V175.121H115.947C115.169 175.121 114.423 175.429 113.874 175.977C113.324 176.525 113.015 177.269 113.015 178.045V237.236C113.015 238.012 113.324 238.755 113.874 239.304C114.423 239.852 115.169 240.16 115.947 240.16H222.481C223.259 240.16 224.005 239.852 224.555 239.304C225.104 238.755 225.413 238.012 225.413 237.236V178.045C225.413 177.661 225.338 177.28 225.19 176.926C225.043 176.571 224.827 176.248 224.555 175.977C224.282 175.705 223.959 175.49 223.603 175.343C223.247 175.196 222.866 175.121 222.481 175.121Z" fill="#3F3D56"/>
<path d="M169.299 202.279C172.895 202.279 175.811 199.372 175.811 195.786C175.811 192.2 172.895 189.293 169.299 189.293C165.703 189.293 162.788 192.2 162.788 195.786C162.788 199.372 165.703 202.279 169.299 202.279Z" stroke="#D0CDE1" stroke-width="2" stroke-miterlimit="10"/>
<path d="M167.216 204.616C170.812 204.616 173.727 201.709 173.727 198.123C173.727 194.537 170.812 191.63 167.216 191.63C163.62 191.63 160.705 194.537 160.705 198.123C160.705 201.709 163.62 204.616 167.216 204.616Z" fill="#D0CDE1"/>
<path d="M87.2444 241.728H79.9519V249H87.2444V241.728Z" fill="#D0CDE1"/>
<path d="M82.8179 236.014V244.845H91.6731V236.014H82.8179ZM91.2876 244.46H83.2007V236.399H91.2876V244.46Z" fill="#3F3D56"/>
<path d="M256.014 241.728H248.722V249H256.014V241.728Z" fill="#D0CDE1"/>
<path d="M251.587 236.014V244.845H260.443V236.014H251.587ZM260.057 244.46H251.97V236.399H260.057V244.46Z" fill="#3F3D56"/>
<path d="M83.6331 129.763C95.0455 129.763 104.297 120.538 104.297 109.158C104.297 97.7774 95.0455 88.5519 83.6331 88.5519C72.2207 88.5519 62.9691 97.7774 62.9691 109.158C62.9691 120.538 72.2207 129.763 83.6331 129.763Z" fill="white"/>
<path d="M90.8342 84.6712C88.9632 84.4339 87.0696 84.4339 85.1985 84.6712C81.0302 85.2169 77.1064 86.9436 73.8927 89.6464C70.6789 92.3491 68.3102 95.9145 67.0675 99.9194C66.5023 101.745 66.1823 103.636 66.1157 105.545C66.1063 105.811 66.1 106.079 66.1 106.348C66.1058 112.142 68.4167 117.698 72.5256 121.795C76.6344 125.892 82.2056 128.197 88.0164 128.202C88.4829 128.202 88.9494 128.187 89.4096 128.159C90.49 128.091 91.5638 127.943 92.6219 127.715C97.6751 126.632 102.182 123.802 105.346 119.727C108.51 115.651 110.128 110.592 109.914 105.442C109.7 100.292 107.668 95.3838 104.177 91.5832C100.686 87.7825 95.9599 85.3344 90.8342 84.6712H90.8342ZM94.8762 126.448H94.873C93.108 127.048 91.2708 127.413 89.4096 127.531C88.9493 127.562 88.4829 127.578 88.0163 127.578C82.372 127.571 76.9607 125.332 72.9696 121.352C68.9784 117.372 66.7331 111.976 66.7262 106.348C66.7262 106.079 66.7325 105.811 66.7418 105.545C66.9571 100.06 69.2918 94.8706 73.2572 91.0629C77.2226 87.2553 82.5114 85.1249 88.0163 85.1176C93.0603 85.1179 97.9403 86.9038 101.787 90.1572C105.634 93.4105 108.197 97.92 109.021 102.882C109.844 107.844 108.875 112.937 106.284 117.253C103.694 121.568 99.651 124.827 94.8761 126.448H94.8762Z" fill="#3F3D56"/>
<path d="M88.3295 86.3665H87.7033V90.7374H88.3295V86.3665Z" fill="#3F3D56"/>
<path d="M74.0689 91.9981L73.6261 92.4396L76.7256 95.5303L77.1683 95.0888L74.0689 91.9981Z" fill="#3F3D56"/>
<path d="M67.9786 106.036V106.66H72.3618V106.036H67.9786Z" fill="#3F3D56"/>
<path d="M73.6261 120.256L74.0689 120.697L77.1683 117.607L76.7255 117.165L73.6261 120.256Z" fill="#3F3D56"/>
<path d="M98.8644 95.0888L99.3072 95.5303L102.407 92.4396L101.964 91.9981L98.8644 95.0888Z" fill="#3F3D56"/>
<path d="M103.671 106.036V106.66H108.054V106.036H103.671Z" fill="#3F3D56"/>
<path d="M99.3072 117.165L98.8644 117.607L101.964 120.697L102.407 120.256L99.3072 117.165Z" fill="#3F3D56"/>
<path d="M88.3295 121.958H87.7033V126.329H88.3295V121.958Z" fill="#3F3D56"/>
<path d="M88.9556 105.099C88.6847 104.896 88.3551 104.787 88.0164 104.787C87.6776 104.787 87.3481 104.896 87.0771 105.099C86.8916 105.239 86.7388 105.418 86.6294 105.623C86.4907 105.888 86.4307 106.186 86.4565 106.483C86.4823 106.78 86.5928 107.063 86.7749 107.299C86.9571 107.536 87.2033 107.715 87.4845 107.816C87.7656 107.917 88.07 107.936 88.3615 107.871C88.6531 107.805 88.9197 107.657 89.1298 107.445C89.3399 107.233 89.4847 106.966 89.5472 106.674C89.6097 106.383 89.5872 106.079 89.4824 105.8C89.3775 105.521 89.1948 105.278 88.9556 105.099H88.9556ZM88.0164 107.284C87.7675 107.284 87.529 107.185 87.353 107.009C87.177 106.834 87.0778 106.596 87.0771 106.348C87.0783 106.158 87.1361 105.974 87.243 105.817C87.3348 105.685 87.4592 105.578 87.6044 105.507C87.7496 105.437 87.9105 105.405 88.0717 105.415C88.2329 105.424 88.3888 105.475 88.5244 105.563C88.66 105.65 88.7707 105.771 88.8458 105.913C88.921 106.056 88.9579 106.215 88.9532 106.376C88.9484 106.537 88.9021 106.694 88.8187 106.832C88.7353 106.97 88.6176 107.084 88.477 107.163C88.3365 107.242 88.1778 107.284 88.0164 107.284V107.284Z" fill="#3F3D56"/>
<path d="M90.8342 79.1857H85.1985V84.8054H90.8342V79.1857Z" fill="#3F3D56"/>
<path d="M88.0164 80.1223C92.1663 80.1223 95.5305 78.9342 95.5305 77.4685C95.5305 76.0029 92.1663 74.8148 88.0164 74.8148C83.8664 74.8148 80.5022 76.0029 80.5022 77.4685C80.5022 78.9342 83.8664 80.1223 88.0164 80.1223Z" fill="#3F3D56"/>
<path d="M88.9556 94.4839H87.0771V105.099H88.9556V94.4839Z" fill="#3F3D56"/>
<path d="M117.861 127.251H59V127.876H117.861V127.251Z" fill="#3F3D56"/>
<path d="M98.2217 225.764C98.4647 234.062 93.6026 237.103 87.5008 237.28C87.3591 237.284 87.218 237.287 87.0775 237.288C86.7946 237.29 86.5144 237.285 86.2369 237.274C80.7184 237.045 76.3503 234.124 76.1243 226.407C75.8904 218.421 85.8309 208.045 86.5767 207.277L86.578 207.277C86.6063 207.247 86.6208 207.233 86.6208 207.233C86.6208 207.233 97.9787 217.467 98.2217 225.764Z" fill="#D0CDE1"/>
<path d="M87.0615 236.023L90.9376 230.275L87.0694 236.641L87.0775 237.288C86.7946 237.29 86.5143 237.285 86.2369 237.274L86.4291 228.96L86.4238 228.896L86.4309 228.883L86.4493 228.098L82.2046 221.952L86.4443 227.51L86.4594 227.676L86.6046 221.394L82.9383 215.023L86.615 220.291L86.5766 207.277L86.5767 207.234L86.578 207.277L86.8214 217.533L90.1628 213.367L86.8323 218.417L86.9052 224.035L89.98 218.552L86.9165 224.861L86.9571 227.986L91.4287 220.347L86.9707 229.075L87.0615 236.023Z" fill="#3F3D56"/>
<path d="M266.991 225.764C267.234 234.062 262.372 237.103 256.27 237.28C256.129 237.284 255.988 237.287 255.847 237.288C255.564 237.29 255.284 237.285 255.006 237.274C249.488 237.045 245.12 234.124 244.894 226.407C244.66 218.421 254.6 208.045 255.346 207.277L255.348 207.277C255.376 207.247 255.39 207.233 255.39 207.233C255.39 207.233 266.748 217.467 266.991 225.764Z" fill="#D0CDE1"/>
<path d="M255.831 236.023L259.707 230.275L255.839 236.641L255.847 237.288C255.564 237.29 255.284 237.285 255.006 237.274L255.199 228.96L255.193 228.896L255.201 228.883L255.219 228.098L250.974 221.952L255.214 227.51L255.229 227.676L255.374 221.394L251.708 215.023L255.385 220.291L255.346 207.277L255.346 207.234L255.348 207.277L255.591 217.533L258.932 213.367L255.602 218.417L255.675 224.035L258.75 218.552L255.686 224.861L255.727 227.986L260.198 220.347L255.74 229.075L255.831 236.023Z" fill="#3F3D56"/>
</svg>
