<svg width="683" height="503" viewBox="0 0 683 503" fill="none" xmlns="http://www.w3.org/2000/svg">
<path fill-rule="evenodd" clip-rule="evenodd" d="M315.287 7.42553C393.178 12.7623 468.564 26.077 526.165 78.7804C599.536 145.913 692.303 231.201 664.075 326.559C636.223 420.645 507.453 421.099 415.055 454.121C341.697 480.337 269.469 520.875 196.472 493.673C115.907 463.65 56.7152 393.983 32.391 311.52C5.96641 221.935 1.14923 115.552 64.7668 47.1675C125.357 -17.9627 226.539 1.34495 315.287 7.42553Z" fill="#413E66"/>
<path opacity="0.1" d="M396.826 74.952C353.043 73.7044 311.337 62.0819 271.519 49.3705C231.701 36.6591 192.249 22.5578 149.511 15.8382C122.02 11.5044 90.5897 10.9135 68.4386 23.0065C47.1306 34.6618 40.2397 54.7878 36.5376 73.4636C33.752 87.5102 32.1147 102.295 39.7448 115.45C45.0474 124.577 54.4552 132.255 60.9612 140.999C83.6072 171.434 67.6017 208.961 43.062 238.673C31.5527 252.594 18.2046 265.913 9.32222 280.748C0.439797 295.582 -3.65931 312.589 4.10517 327.724C11.8086 342.729 30.1599 353.99 50.0445 361.924C90.4248 378.023 138.014 382.63 184.442 385.24C287.127 391.035 390.369 388.513 493.384 386.012C531.498 385.082 569.746 384.146 607.273 379.298C628.093 376.606 649.59 372.337 664.697 362.028C683.892 348.945 688.645 326.783 675.785 310.378C654.221 282.854 594.585 276.014 579.508 246.482C571.194 230.219 579.746 212.102 591.799 197.032C617.665 164.687 661.026 136.293 663.311 99.3351C664.881 73.9397 644.037 48.5059 611.806 36.4895C578.024 23.9039 531.168 25.4799 506.249 46.339C480.586 67.7946 435.489 76.0573 396.826 74.952Z" fill="#AFBEDC"/>
<path opacity="0.1" d="M490.488 432C534.011 432 569.294 426.855 569.294 420.509C569.294 414.162 534.011 409.018 490.488 409.018C446.965 409.018 411.683 414.162 411.683 420.509C411.683 426.855 446.965 432 490.488 432Z" fill="#AFBEDC"/>
<path d="M180.453 226.166L180.257 235.819L178.656 314.079L164.966 342.801L117.781 343.283V230.609L167.025 227.118L180.453 226.166Z" fill="#5F5D7E"/>
<path opacity="0.1" d="M180.453 226.166L180.257 235.819L178.656 314.079L164.966 342.801L117.781 343.283V230.609L167.025 227.118L180.453 226.166Z" fill="black"/>
<path d="M180.453 226.166L180.257 235.819L178.657 314.079L164.966 342.801L168.571 236.005L168.558 235.934L167.025 227.118L180.453 226.166Z" fill="#5F5D7E"/>
<path opacity="0.1" d="M167.025 227.118L180.453 226.166L180.257 235.819L168.558 235.934L117.781 236.443V230.609L167.025 227.118Z" fill="black"/>
<path d="M604.591 230.609V342.632H593.608L549.66 313.92V227.452L588.922 224.147L591.329 225.138L593.608 226.079L604.591 230.609Z" fill="#5F5D7E"/>
<path opacity="0.1" d="M604.591 225.137H593.608V342.632H604.591V225.137Z" fill="black"/>
<path opacity="0.1" d="M604.591 225.138V231.578L593.608 231.693L549.66 232.125V227.452L588.922 224.147L591.329 225.138L593.608 226.079V225.138H604.591Z" fill="black"/>
<path d="M604.591 221.482V230.609L64.8344 236.005V224.388L115.618 215.189L557.583 212.289L604.591 221.482Z" fill="#5F5D7E"/>
<path opacity="0.1" d="M604.591 221.482V230.609L64.8344 236.005V224.388L604.591 221.482Z" fill="black"/>
<path opacity="0.1" d="M156.811 219.529C170.249 219.529 181.143 218.904 181.143 218.133C181.143 217.363 170.249 216.738 156.811 216.738C143.373 216.738 132.479 217.363 132.479 218.133C132.479 218.904 143.373 219.529 156.811 219.529Z" fill="black"/>
<path d="M177.233 164.185C176.718 164.823 176.307 165.523 176.011 166.265C175.938 166.445 175.865 166.653 175.791 166.85C175.653 166.791 175.508 166.747 175.358 166.719C174.73 166.575 174.08 166.523 173.433 166.566C173.433 166.343 173.446 166.108 173.47 165.86C173.549 163.31 173.213 159.753 170.495 161.258C167.893 162.708 169.75 165.121 171.43 166.68C171.576 166.817 171.723 166.943 171.863 167.063C170.33 168.048 170.031 170.319 169.78 172.694C169.53 175.069 167.276 177.674 165.785 179.151L165.357 179.561C164.754 179.128 164.055 178.815 163.306 178.642C162.557 178.469 161.776 178.441 161.014 178.56C160.945 178.352 160.877 178.133 160.812 177.903C159.59 173.991 157.092 167.211 153.885 165.723L154.306 165.247C155.669 163.649 157.202 161.28 154.917 160.672C152.632 160.065 152.474 162.73 152.577 164.721C152.577 164.973 152.614 165.208 152.638 165.433C152.189 165.454 151.749 165.557 151.344 165.734C150.94 165.912 150.58 166.161 150.287 166.467C150.177 166.347 150.067 166.226 149.938 166.095C148.106 164.152 144.733 161.077 143.713 163.408C142.766 165.597 145.729 168.388 147.818 170.018L147.947 170.122C146.548 175.211 152.657 179.359 155.95 181.17L156.371 181.405C151.832 186.193 149.04 195.173 149.04 195.173L161.747 197.209C161.747 197.209 170.171 190.697 169.078 184.579H169.163C177.581 183.069 179.5 175.025 178.186 170.254L178.339 170.199C179.87 169.633 181.213 168.722 182.236 167.556C184.594 164.617 179.652 161.307 177.233 164.185Z" fill="#AFBEDC"/>
<path opacity="0.1" d="M177.233 164.185C176.718 164.823 176.307 165.523 176.011 166.265C175.938 166.445 175.865 166.653 175.791 166.85C175.653 166.791 175.508 166.747 175.358 166.719C174.73 166.575 174.08 166.523 173.433 166.566C173.433 166.343 173.446 166.108 173.47 165.86C173.549 163.31 173.213 159.753 170.495 161.258C167.893 162.708 169.75 165.121 171.43 166.68C171.576 166.817 171.723 166.943 171.863 167.063C170.33 168.048 170.031 170.319 169.78 172.694C169.53 175.069 167.276 177.674 165.785 179.151L165.357 179.561C164.754 179.128 164.055 178.815 163.306 178.642C162.557 178.469 161.776 178.441 161.014 178.56C160.945 178.352 160.877 178.133 160.812 177.903C159.59 173.991 157.092 167.211 153.885 165.723L154.306 165.247C155.669 163.649 157.202 161.28 154.917 160.672C152.632 160.065 152.474 162.73 152.577 164.721C152.577 164.973 152.614 165.208 152.638 165.433C152.189 165.454 151.749 165.557 151.344 165.734C150.94 165.912 150.58 166.161 150.287 166.467C150.177 166.347 150.067 166.226 149.938 166.095C148.106 164.152 144.733 161.077 143.713 163.408C142.766 165.597 145.729 168.388 147.818 170.018L147.947 170.122C146.548 175.211 152.657 179.359 155.95 181.17L156.371 181.405C151.832 186.193 149.04 195.173 149.04 195.173L161.747 197.209C161.747 197.209 170.171 190.697 169.078 184.579H169.163C177.581 183.069 179.5 175.025 178.186 170.254L178.339 170.199C179.87 169.633 181.213 168.722 182.236 167.556C184.594 164.617 179.652 161.307 177.233 164.185Z" fill="black"/>
<path d="M151.936 167.468L150.451 171.364C150.451 171.364 149.627 170.845 148.582 170.018C146.499 168.377 143.53 165.575 144.483 163.408C145.503 161.077 148.869 164.152 150.708 166.095C151.447 166.872 151.936 167.468 151.936 167.468Z" fill="#AFBEDC"/>
<path d="M155.07 165.247C154.617 165.778 154.134 166.288 153.622 166.773C153.495 166.094 153.408 165.409 153.359 164.721C153.237 162.73 153.469 160.081 155.699 160.672C157.929 161.263 156.432 163.649 155.07 165.247Z" fill="#AFBEDC"/>
<path d="M174.234 165.86C174.191 167.14 174.05 168.163 174.05 168.163C173.401 167.708 172.789 167.213 172.218 166.68C170.538 165.121 168.674 162.708 171.283 161.258C173.977 159.753 174.313 163.31 174.234 165.86Z" fill="#AFBEDC"/>
<path d="M183.012 167.539C181.988 168.706 180.646 169.616 179.115 170.182C178.689 170.347 178.252 170.488 177.807 170.604L176.054 168.415C176.242 167.688 176.485 166.973 176.781 166.275C177.076 165.534 177.488 164.834 178.003 164.196C180.428 161.307 185.37 164.617 183.012 167.539Z" fill="#AFBEDC"/>
<path opacity="0.1" d="M150.708 166.095C151.447 166.872 151.93 167.468 151.93 167.468L150.445 171.364C150.445 171.364 149.621 170.845 148.576 170.018C148.807 168.771 149.383 167.596 150.25 166.598C150.403 166.418 150.555 166.248 150.708 166.095Z" fill="black"/>
<path opacity="0.1" d="M155.07 165.247C154.617 165.778 154.134 166.288 153.622 166.773C153.495 166.094 153.408 165.409 153.359 164.721C153.976 164.734 154.574 164.917 155.07 165.247V165.247Z" fill="black"/>
<path d="M162.376 180.711L158.68 182.166C158.006 181.865 157.349 181.532 156.713 181.17C152.828 179.031 145.021 173.646 150.256 167.293C155.491 160.94 159.859 172.333 161.576 177.903C162.095 179.567 162.376 180.711 162.376 180.711Z" fill="#AFBEDC"/>
<path opacity="0.1" d="M172.199 166.686C172.735 166.189 173.463 165.895 174.234 165.865C174.191 167.145 174.05 168.169 174.05 168.169C173.395 167.714 172.776 167.219 172.199 166.686V166.686Z" fill="black"/>
<path opacity="0.1" d="M179.115 170.182C178.689 170.347 178.252 170.488 177.807 170.604L176.054 168.415C176.242 167.688 176.485 166.973 176.781 166.275C177.911 166.855 178.742 168.327 179.115 170.182Z" fill="black"/>
<path d="M169.939 184.563C169.735 184.599 169.532 184.632 169.328 184.661C156.945 186.352 165.247 180.36 165.247 180.36C165.247 180.36 165.803 179.901 166.561 179.151C168.051 177.674 170.306 175.085 170.562 172.694C170.947 169.099 171.399 165.728 176.14 166.719C180.88 167.709 181.668 182.462 169.939 184.563Z" fill="#AFBEDC"/>
<path d="M169.713 212.191H146.041V217.767H169.713V212.191Z" fill="#474157"/>
<path d="M173.207 194.073H142.278V213.531H173.207V194.073Z" fill="#474157"/>
<path opacity="0.1" d="M169.481 212.191H145.809V217.767H169.481V212.191Z" fill="black"/>
<path opacity="0.1" d="M173.11 194.073H142.18V213.531H173.11V194.073Z" fill="black"/>
<path d="M171.271 212.191H147.599V217.767H171.271V212.191Z" fill="#474157"/>
<path opacity="0.1" d="M161.576 177.903C162.095 179.545 162.376 180.711 162.376 180.711L158.68 182.166C158.006 181.865 157.349 181.532 156.713 181.17C158.161 179.529 159.792 178.286 161.576 177.903Z" fill="black"/>
<path opacity="0.1" d="M169.939 184.563C169.735 184.599 169.532 184.632 169.328 184.661C156.945 186.352 165.247 180.36 165.247 180.36C165.247 180.36 165.803 179.901 166.561 179.151C168.858 180.809 169.835 182.675 169.939 184.563Z" fill="black"/>
<path d="M149.798 195.173C149.798 195.173 156.738 172.929 166.463 179.786C176.189 186.642 162.504 197.209 162.504 197.209L149.798 195.173Z" fill="#AFBEDC"/>
<path opacity="0.1" d="M153.304 171.474C153.733 171.474 154.08 171.163 154.08 170.779C154.08 170.395 153.733 170.084 153.304 170.084C152.876 170.084 152.528 170.395 152.528 170.779C152.528 171.163 152.876 171.474 153.304 171.474Z" fill="black"/>
<path opacity="0.1" d="M153.237 174.73C153.666 174.73 154.013 174.419 154.013 174.035C154.013 173.651 153.666 173.34 153.237 173.34C152.809 173.34 152.461 173.651 152.461 174.035C152.461 174.419 152.809 174.73 153.237 174.73Z" fill="black"/>
<path opacity="0.1" d="M175.804 172.114C176.232 172.114 176.579 171.803 176.579 171.419C176.579 171.035 176.232 170.724 175.804 170.724C175.375 170.724 175.028 171.035 175.028 171.419C175.028 171.803 175.375 172.114 175.804 172.114Z" fill="black"/>
<path opacity="0.1" d="M157.648 188.782C158.076 188.782 158.424 188.471 158.424 188.087C158.424 187.703 158.076 187.392 157.648 187.392C157.219 187.392 156.872 187.703 156.872 188.087C156.872 188.471 157.219 188.782 157.648 188.782Z" fill="black"/>
<path opacity="0.1" d="M174.179 177.515C174.607 177.515 174.954 177.204 174.954 176.82C174.954 176.436 174.607 176.125 174.179 176.125C173.75 176.125 173.403 176.436 173.403 176.82C173.403 177.204 173.75 177.515 174.179 177.515Z" fill="black"/>
<path opacity="0.1" d="M166.139 184.716C166.568 184.716 166.915 184.405 166.915 184.021C166.915 183.637 166.568 183.326 166.139 183.326C165.711 183.326 165.363 183.637 165.363 184.021C165.363 184.405 165.711 184.716 166.139 184.716Z" fill="black"/>
<path opacity="0.1" d="M155.962 172.869C156.39 172.869 156.738 172.558 156.738 172.174C156.738 171.79 156.39 171.479 155.962 171.479C155.533 171.479 155.186 171.79 155.186 172.174C155.186 172.558 155.533 172.869 155.962 172.869Z" fill="black"/>
<path opacity="0.1" d="M173.659 174.204C174.088 174.204 174.435 173.893 174.435 173.509C174.435 173.126 174.088 172.814 173.659 172.814C173.231 172.814 172.884 173.126 172.884 173.509C172.884 173.893 173.231 174.204 173.659 174.204Z" fill="black"/>
<path opacity="0.1" d="M171.002 179.605C171.43 179.605 171.778 179.294 171.778 178.91C171.778 178.526 171.43 178.215 171.002 178.215C170.573 178.215 170.226 178.526 170.226 178.91C170.226 179.294 170.573 179.605 171.002 179.605Z" fill="black"/>
<path opacity="0.1" d="M162.834 188.262C163.263 188.262 163.61 187.951 163.61 187.567C163.61 187.183 163.263 186.872 162.834 186.872C162.406 186.872 162.058 187.183 162.058 187.567C162.058 187.951 162.406 188.262 162.834 188.262Z" fill="black"/>
<path opacity="0.1" d="M161.148 184.836C161.577 184.836 161.924 184.525 161.924 184.141C161.924 183.758 161.577 183.447 161.148 183.447C160.72 183.447 160.372 183.758 160.372 184.141C160.372 184.525 160.72 184.836 161.148 184.836Z" fill="black"/>
<path opacity="0.1" d="M157.129 177.11C157.557 177.11 157.904 176.799 157.904 176.415C157.904 176.031 157.557 175.72 157.129 175.72C156.7 175.72 156.353 176.031 156.353 176.415C156.353 176.799 156.7 177.11 157.129 177.11Z" fill="black"/>
<path opacity="0.1" d="M171.271 212.191H147.599V214.226H171.271V212.191Z" fill="black"/>
<path d="M174.765 194.073H143.835V213.531H174.765V194.073Z" fill="#474157"/>
<path opacity="0.1" d="M163.873 191.397C164.301 191.397 164.649 191.086 164.649 190.702C164.649 190.319 164.301 190.007 163.873 190.007C163.444 190.007 163.097 190.319 163.097 190.702C163.097 191.086 163.444 191.397 163.873 191.397Z" fill="black"/>
<path opacity="0.1" d="M159.2 192.267C159.628 192.267 159.975 191.956 159.975 191.572C159.975 191.189 159.628 190.877 159.2 190.877C158.771 190.877 158.424 191.189 158.424 191.572C158.424 191.956 158.771 192.267 159.2 192.267Z" fill="black"/>
<path d="M233.368 268.426C233.368 268.426 237.223 272.941 231.591 279.759C225.958 286.577 221.309 292.344 223.185 296.58C223.185 296.58 231.688 283.917 238.604 283.742C245.519 283.567 240.956 276.038 233.368 268.426Z" fill="#AFBEDC"/>
<path opacity="0.1" d="M233.368 268.426C233.702 268.862 233.968 269.337 234.156 269.838C240.907 276.952 244.505 283.578 238.011 283.742C231.969 283.896 224.718 293.592 222.983 296.021C223.038 296.207 223.105 296.39 223.185 296.569C223.185 296.569 231.688 283.907 238.604 283.731C245.519 283.556 240.956 276.038 233.368 268.426Z" fill="black"/>
<path d="M240.51 274.177C240.51 275.77 240.308 277.056 240.064 277.056C239.819 277.056 239.618 275.77 239.618 274.177C239.618 272.585 239.868 273.34 240.113 273.34C240.357 273.34 240.51 272.59 240.51 274.177Z" fill="#FFD037"/>
<path d="M242.966 276.076C241.408 276.837 240.052 277.296 239.911 277.105C239.771 276.913 240.962 276.136 242.52 275.376C244.077 274.615 243.46 275.168 243.576 275.376C243.692 275.584 244.523 275.315 242.966 276.076Z" fill="#FFD037"/>
<path d="M212.983 268.426C212.983 268.426 209.122 272.941 214.76 279.759C220.399 286.577 225.042 292.344 223.16 296.58C223.16 296.58 214.663 283.917 207.741 283.742C200.82 283.567 205.371 276.038 212.983 268.426Z" fill="#AFBEDC"/>
<path opacity="0.1" d="M212.983 268.426C212.646 268.861 212.381 269.336 212.195 269.838C205.438 276.952 201.846 283.578 208.334 283.742C214.382 283.896 221.633 293.592 223.368 296.021C223.307 296.213 223.24 296.399 223.16 296.569C223.16 296.569 214.663 283.907 207.741 283.731C200.82 283.556 205.371 276.038 212.983 268.426Z" fill="black"/>
<path d="M205.811 274.177C205.811 275.77 206.012 277.056 206.257 277.056C206.501 277.056 206.703 275.77 206.703 274.177C206.703 272.585 206.452 273.34 206.208 273.34C205.964 273.34 205.811 272.59 205.811 274.177Z" fill="#FFD037"/>
<path d="M203.355 276.076C204.913 276.837 206.269 277.296 206.41 277.105C206.55 276.913 205.365 276.136 203.807 275.376C202.249 274.615 202.86 275.168 202.744 275.376C202.628 275.584 201.797 275.315 203.355 276.076Z" fill="#FFD037"/>
<path opacity="0.1" d="M223.166 331.124C245.427 331.124 263.473 328.642 263.473 325.581C263.473 322.52 245.427 320.038 223.166 320.038C200.906 320.038 182.859 322.52 182.859 325.581C182.859 328.642 200.906 331.124 223.166 331.124Z" fill="#AFBEDC"/>
<path d="M243.906 290.495L243.711 291.907L243.442 293.898L243.332 294.725L243.063 296.722L242.941 297.548L242.672 299.54L239.587 322.188C239.312 324.213 235.629 325.789 231.175 325.789H215.145C210.698 325.789 207.014 324.213 206.739 322.188L203.648 299.54L203.38 297.548L203.27 296.722L202.989 294.725L202.879 293.898L202.61 291.907L202.414 290.495C202.262 289.351 204.247 288.388 206.776 288.388H239.551C242.068 288.388 244.065 289.351 243.906 290.495Z" fill="#65617D"/>
<path d="M243.717 291.901L243.442 293.893H202.885L202.61 291.901H243.717Z" fill="#9D9CB5"/>
<path d="M243.332 294.725L243.063 296.716H203.269L202.995 294.725H243.332Z" fill="#9D9CB5"/>
<path d="M242.947 297.548L242.678 299.54H203.654L203.379 297.548H242.947Z" fill="#9D9CB5"/>
<path d="M345.443 213.57V214.697H308.234V213.783C310.577 213.007 312.598 211.605 314.025 209.768C315.451 207.93 316.215 205.745 316.212 203.507C316.212 201.41 315.54 199.357 314.275 197.592C313.01 195.828 311.206 194.426 309.077 193.553H345.193C343.039 194.433 341.216 195.853 339.947 197.643C338.677 199.433 338.016 201.514 338.042 203.635C338.069 205.755 338.782 207.822 340.096 209.586C341.41 211.35 343.268 212.734 345.443 213.57V213.57Z" fill="#C8CAD7"/>
<path opacity="0.1" d="M345.193 193.553C343.534 194.235 342.066 195.241 340.898 196.498C339.729 197.754 338.891 199.229 338.442 200.815H315.839C315.388 199.229 314.546 197.755 313.376 196.498C312.206 195.242 310.737 194.236 309.077 193.553H345.193Z" fill="black"/>
<path d="M265.624 187.808V194.139C265.624 197.63 268.483 200.464 272.001 200.464H381.48C384.999 200.464 387.858 197.63 387.858 194.139V187.808H265.624Z" fill="#C8CAD7"/>
<path opacity="0.1" d="M345.443 213.57V214.697H308.234V213.783C309.254 213.443 310.22 212.983 311.105 212.415H343.165C343.876 212.872 344.64 213.259 345.443 213.57V213.57Z" fill="black"/>
<path d="M355.884 212.765H297.806C296.777 212.765 295.942 213.513 295.942 214.434C295.942 215.356 296.777 216.103 297.806 216.103H355.884C356.913 216.103 357.747 215.356 357.747 214.434C357.747 213.513 356.913 212.765 355.884 212.765Z" fill="#C8CAD7"/>
<path d="M387.858 118.483C387.858 117.733 387.693 116.99 387.372 116.297C387.052 115.604 386.582 114.974 385.99 114.444C385.398 113.913 384.694 113.492 383.921 113.205C383.147 112.918 382.318 112.77 381.48 112.77H272.001C270.31 112.77 268.688 113.372 267.492 114.444C266.296 115.515 265.624 116.968 265.624 118.483V189.039H387.858V118.483Z" fill="#5F5D7E"/>
<path d="M384.522 121.028V181.657C384.522 182.403 384.192 183.119 383.603 183.646C383.014 184.173 382.215 184.47 381.382 184.47H272.099C271.266 184.47 270.468 184.173 269.879 183.646C269.29 183.119 268.959 182.403 268.959 181.657V121.028C268.968 120.533 269.124 120.05 269.411 119.627C269.687 119.2 270.084 118.845 270.561 118.598C271.038 118.352 271.579 118.221 272.13 118.221H381.382C382.214 118.221 383.012 118.516 383.601 119.042C384.189 119.569 384.521 120.283 384.522 121.028Z" fill="#AFBEDC"/>
<path d="M326.744 116.809C327.557 116.809 328.216 116.218 328.216 115.49C328.216 114.762 327.557 114.171 326.744 114.171C325.931 114.171 325.272 114.762 325.272 115.49C325.272 116.218 325.931 116.809 326.744 116.809Z" fill="white"/>
<path d="M326.744 197.652C328.748 197.652 330.373 196.197 330.373 194.401C330.373 192.606 328.748 191.151 326.744 191.151C324.74 191.151 323.115 192.606 323.115 194.401C323.115 196.197 324.74 197.652 326.744 197.652Z" fill="white"/>
<path d="M384.522 121.028H268.959C268.959 120.282 269.29 119.566 269.879 119.039C270.468 118.511 271.266 118.215 272.099 118.215H381.382C382.215 118.215 383.014 118.511 383.603 119.039C384.192 119.566 384.522 120.282 384.522 121.028Z" fill="white"/>
<path d="M272.105 120.322C272.537 120.322 272.887 120.008 272.887 119.621C272.887 119.235 272.537 118.921 272.105 118.921C271.673 118.921 271.323 119.235 271.323 119.621C271.323 120.008 271.673 120.322 272.105 120.322Z" fill="#EDEDF4"/>
<path d="M274.457 120.322C274.889 120.322 275.239 120.008 275.239 119.621C275.239 119.235 274.889 118.921 274.457 118.921C274.025 118.921 273.675 119.235 273.675 119.621C273.675 120.008 274.025 120.322 274.457 120.322Z" fill="#EDEDF4"/>
<path d="M276.809 120.322C277.241 120.322 277.591 120.008 277.591 119.621C277.591 119.235 277.241 118.921 276.809 118.921C276.377 118.921 276.027 119.235 276.027 119.621C276.027 120.008 276.377 120.322 276.809 120.322Z" fill="#EDEDF4"/>
<path d="M401.365 243.841C401.365 243.841 408.695 246.511 417.694 249.712C418.002 250.634 418.239 251.574 418.403 252.525C418.561 254.385 422.679 257.006 422.679 257.006C422.679 257.006 430.315 258.243 436.064 259.693C440.529 260.787 441.146 258.599 440.572 257.745L441.91 258.205C442.209 269.28 442.551 277.357 442.551 277.357C442.551 277.357 444.506 277.357 447.591 277.488C447.628 277.838 447.665 278.199 447.707 278.582C448.886 289.526 451.055 307.584 452.735 309.083C455.179 311.201 454.097 326.807 453.157 329.565C452.216 332.323 453.157 352.169 453.157 352.169C453.157 352.169 456.938 364.295 456.62 377.527C456.303 390.758 460.713 397.652 460.713 397.652L462.295 397.756C462.295 398.123 462.247 398.484 462.228 398.851C462.155 400.049 462.1 401.248 462.082 402.336C461.983 403.999 461.347 405.6 460.249 406.944C457.717 410.186 455.971 413.868 455.124 417.751C454.939 418.619 454.808 419.496 454.733 420.378C454.733 420.596 454.702 420.717 454.702 420.717C454.702 420.717 456.168 424.58 469.926 425.866C483.683 427.152 481.691 418.238 481.691 418.238C481.691 418.238 481.759 417.986 481.844 417.527C482.446 414.513 482.465 411.429 481.899 408.41C481.417 406.057 481.832 401.986 482.431 398.254C482.492 397.866 482.559 397.483 482.62 397.105C483.771 396.89 484.852 396.44 485.778 395.792C490.085 392.274 485.778 364.301 485.778 364.301C485.778 364.301 478.008 341.422 479.902 338.112C481.795 334.801 483.995 326.812 483.995 326.812V298.971C487.049 294.555 488.423 288.514 488.992 283.015C489.028 282.648 489.065 282.287 489.095 281.92C491.643 281.964 494.086 281.882 496.304 281.745L496.915 282.839C500.519 289.094 504.185 295.288 505.083 296.202C506.97 298.134 505.394 306.954 505.083 311.365C504.771 315.775 508.546 324.596 508.546 324.596C503.824 327.075 502.877 356.295 502.877 356.295C502.877 356.295 506.341 363.464 499.096 371.458C491.851 379.453 494.685 394.616 495.632 394.063C495.883 393.915 497.416 394.139 499.597 394.462C499.201 395.772 498.492 396.989 497.52 398.03C495.18 400.635 494.38 404.717 494.148 407.978C494.011 409.678 494.011 411.384 494.148 413.083L499.395 416.367C499.395 416.367 502.651 416.367 502.651 418.944C502.651 421.521 510.63 424.088 510.63 424.088C510.63 424.088 522.493 427.026 531.632 424.088C534.595 423.135 535.499 421.499 535.151 419.513C534.43 415.36 528.229 409.663 523.758 405.527C520.74 402.719 519.365 398.999 518.754 395.776C518.687 395.431 518.632 395.092 518.583 394.758C518.952 394.572 519.28 394.329 519.555 394.041C523.336 389.904 527.429 378.605 527.429 378.605C527.429 378.605 525.56 367.059 529.653 356.563C532.707 348.799 536.415 330.599 538.138 321.685C538.768 318.451 538.883 315.153 538.48 311.89C537.686 305.384 536.464 293.329 536.898 283.786C537.045 280.673 536.941 275.72 536.703 269.915V269.833C538.945 266.041 543.807 259.852 551.92 259.343C563.68 258.604 557.589 252.82 557.589 252.82C557.589 252.82 550.692 209.411 546.147 201.707C546.078 201.572 545.998 201.442 545.909 201.318C545.237 200.36 544.504 198.445 543.728 195.89C539.25 181.088 533.52 144.623 533.52 144.623L532.817 135.753C539.83 138.834 552.842 144.453 558.09 146.095C565.421 148.393 575.623 146.921 578.146 139.386C580.669 131.851 570.167 116.601 570.167 116.601C568.622 111.195 557.95 99.9387 552.396 94.3518C551.859 93.6241 551.327 92.9018 550.808 92.2123C549.379 90.3026 548.09 88.6172 547.271 87.6268L547.192 87.7636C546.99 87.5119 546.801 87.2766 546.636 87.0796L546.501 87.3204C544.516 84.0372 542.286 80.661 540.557 78.8497C536.538 74.6473 519.005 70.1274 517.27 71.3695C516.005 72.2724 521.253 76.2122 524.925 78.6309L521.418 76.5077L513.58 70.4338L510.129 68.3435C509.985 68.2564 509.834 68.1796 509.677 68.1137C510.575 64.9531 510.684 61.6538 509.995 58.4512C509.307 55.2486 507.838 52.2215 505.694 49.5856C505.449 49.2847 505.186 48.9837 504.924 48.6937C508.534 46.0015 509.677 41.5528 509.677 37.6403V37.4925C509.409 36.0262 508.683 34.658 507.581 33.5473C507.636 33.6457 507.691 33.7552 507.74 33.8592C507.108 33.1351 506.309 32.5424 505.396 32.122C504.484 31.7016 503.481 31.4635 502.456 31.4241C499.401 31.3803 496.842 33.1752 494.16 34.4064C491.401 35.6442 488.376 36.3338 485.292 36.4283C482.208 36.5227 479.138 36.0197 476.291 34.9536C474.636 34.3188 472.968 33.4761 471.172 33.6074C469.376 33.7388 467.952 34.773 466.731 35.851C463.793 38.3875 461.483 41.4486 459.95 44.8359C459.498 45.8264 459.094 46.8825 458.221 47.6266C457.556 48.1129 456.835 48.5348 456.07 48.8852C454.753 49.6368 453.62 50.6198 452.739 51.7747C451.858 52.9296 451.248 54.2326 450.945 55.6048C450.375 58.3366 450.695 61.1576 451.867 63.7307C452.576 65.5118 453.734 67.1223 455.252 68.4366C456.394 69.3832 457.763 70.0782 458.972 70.9701C459.521 71.3708 460.034 71.8099 460.506 72.2834C455.012 73.3726 449.988 75.8665 446.046 79.4626C443.083 82.0266 440.607 85.0059 438.715 88.2834C433.602 96.8908 430.498 102.248 428.653 105.646C427.731 105.898 427.163 106.018 427.163 106.018C427.163 106.018 420.235 111.528 420.339 127.331L414.982 158.938V175.107C414.982 175.107 408.085 192.656 409.215 207.178C409.215 207.375 409.215 207.567 409.258 207.759L408.696 210.226C407.83 211.282 407.399 212.574 407.474 213.882C407.439 214.329 407.476 214.779 407.584 215.217L404.774 227.649L405.305 228.153L403.857 231.802C398.402 239.611 401.365 243.841 401.365 243.841ZM441.879 155.195C442.228 155.408 442.423 155.518 442.423 155.518C442.423 155.518 445.478 180.016 443.645 194.582L437.212 194.188L434.158 193.345L435.251 185.559C435.251 185.559 439.167 165.044 441.855 155.195H441.879ZM467.158 84.0864L467.769 83.2437C467.641 83.5447 467.513 83.8402 467.378 84.1138L467.158 84.0864ZM438.122 194.462L441.452 194.768L443.559 195.162C443.523 195.425 443.486 195.682 443.449 195.934L438.122 194.462ZM509.677 88.5461C509.675 88.2734 509.654 88.0011 509.615 87.7307L512.23 89.1206L512.389 89.2082C511.485 88.9729 510.556 88.7649 509.677 88.5734V88.5461ZM529.971 99.3806C529.612 98.8762 529.224 98.3886 528.81 97.9196C530.642 98.3135 531.779 98.5434 531.779 98.5434C533.242 98.3157 534.746 98.452 536.128 98.9374C536.576 99.7528 537.08 100.542 537.637 101.301L542.463 109.673C542.463 109.673 541.413 109.766 539.311 108.847C537.21 107.928 529.971 99.3806 529.971 99.3806ZM438.281 256.973L439.79 257.521C439.454 257.614 438.917 257.395 438.281 256.973Z" fill="url(#paint0_linear)"/>
<path d="M490.555 77.1042C492.498 78.1274 492.559 82.4996 492.26 86.0071C492.046 88.5735 491.649 90.6747 491.649 90.6747L504.288 118.199C504.288 118.199 508.974 98.5872 509.047 89.832C509.053 89.1412 508.935 88.454 508.699 87.7964C506.494 81.4872 494.105 77.9852 490.555 77.1042Z" fill="#67647E"/>
<path d="M489.645 76.8853C489.645 76.8853 489.987 76.9564 490.58 77.1042C490.296 76.9576 489.973 76.8821 489.645 76.8853V76.8853Z" fill="#67647E"/>
<path d="M494.025 411.951L499.114 415.234C499.114 415.234 502.273 415.234 502.273 417.789C502.273 420.345 510.006 422.895 510.006 422.895C510.006 422.895 521.516 425.811 530.374 422.895C533.245 421.948 534.125 420.328 533.789 418.353C533.086 414.233 527.069 408.602 522.738 404.471C519.811 401.685 518.461 397.992 517.887 394.796C517.464 392.509 517.349 390.185 517.545 387.874L498.913 386.687C499.98 389.205 499.98 391.987 498.913 394.506C498.505 395.407 497.956 396.251 497.282 397.012C495.009 399.595 494.227 403.65 494.007 406.862C493.88 408.556 493.886 410.257 494.025 411.951V411.951Z" fill="#67647E"/>
<path d="M455.735 419.518C455.735 419.518 457.158 423.349 470.5 424.629C483.842 425.91 481.905 417.056 481.905 417.056C481.905 417.056 481.973 416.804 482.058 416.35C482.638 413.357 482.654 410.298 482.107 407.299C481.643 404.968 482.046 400.925 482.626 397.22C483.31 392.81 484.245 388.875 484.245 388.875L463.572 390.243C463.572 390.243 463.212 394.014 463.004 397.822C462.937 399.009 462.882 400.197 462.864 401.28C462.768 402.925 462.149 404.51 461.08 405.849C458.632 409.084 456.952 412.735 456.144 416.574C455.965 417.436 455.839 418.305 455.765 419.179C455.735 419.398 455.735 419.518 455.735 419.518Z" fill="#67647E"/>
<path d="M494.026 411.951L499.114 415.234C499.114 415.234 502.273 415.234 502.273 417.789C502.273 420.345 510.007 422.895 510.007 422.895C510.007 422.895 521.516 425.811 530.374 422.895C533.245 421.948 534.125 420.328 533.789 418.353C533.514 418.353 533.251 418.386 533.031 418.391C529.402 418.495 525.871 419.371 522.261 419.661C520.204 419.797 518.14 419.826 516.079 419.748C515.056 419.742 514.036 419.671 513.024 419.535C510.581 419.146 508.314 418.014 506.133 416.903C505.6 416.679 505.13 416.349 504.759 415.94C504.465 415.485 504.259 414.989 504.148 414.473C503.378 412 501.228 410.019 498.76 408.717C497.258 407.951 495.666 407.336 494.013 406.884C493.885 408.571 493.889 410.264 494.026 411.951V411.951Z" fill="#67647E"/>
<path d="M455.735 419.518C455.735 419.518 457.158 423.349 470.5 424.629C483.842 425.91 481.905 417.056 481.905 417.056C481.905 417.056 481.972 416.804 482.058 416.35C481.447 416.635 480.928 416.897 480.69 417.018C479.468 417.658 478.374 418.539 477.104 419.135C474.049 420.575 470.384 420.148 466.938 419.683C465.32 419.464 463.701 419.245 462.088 418.977C460.858 418.826 459.662 418.508 458.539 418.036C457.704 417.6 456.904 417.114 456.144 416.58C455.965 417.441 455.839 418.311 455.765 419.185C455.735 419.398 455.735 419.518 455.735 419.518Z" fill="#67647E"/>
<path opacity="0.1" d="M494.026 411.951L499.114 415.234C499.114 415.234 502.273 415.234 502.273 417.789C502.273 420.345 510.007 422.895 510.007 422.895C510.007 422.895 521.516 425.811 530.374 422.895C533.245 421.948 534.125 420.328 533.789 418.353C533.514 418.353 533.251 418.386 533.031 418.391C529.402 418.495 525.871 419.371 522.261 419.661C520.204 419.797 518.14 419.826 516.079 419.748C515.056 419.742 514.036 419.671 513.024 419.535C510.581 419.146 508.314 418.014 506.133 416.903C505.6 416.679 505.13 416.349 504.759 415.94C504.465 415.485 504.259 414.989 504.148 414.473C503.378 412 501.228 410.019 498.76 408.717C497.258 407.951 495.666 407.336 494.013 406.884C493.885 408.571 493.889 410.264 494.026 411.951V411.951Z" fill="black"/>
<path opacity="0.1" d="M455.735 419.518C455.735 419.518 457.158 423.349 470.5 424.629C483.842 425.91 481.905 417.056 481.905 417.056C481.905 417.056 481.972 416.804 482.058 416.35C481.447 416.635 480.928 416.897 480.69 417.018C479.468 417.658 478.374 418.539 477.104 419.135C474.049 420.575 470.384 420.148 466.938 419.683C465.32 419.464 463.701 419.245 462.088 418.977C460.858 418.826 459.662 418.508 458.539 418.036C457.704 417.6 456.904 417.114 456.144 416.58C455.965 417.441 455.839 418.311 455.765 419.185C455.735 419.398 455.735 419.518 455.735 419.518Z" fill="black"/>
<path opacity="0.1" d="M498.913 386.687C499.98 389.205 499.98 391.987 498.913 394.506C504.258 395.321 514.222 396.968 517.887 394.796C517.464 392.509 517.349 390.185 517.545 387.874L498.913 386.687Z" fill="black"/>
<path opacity="0.1" d="M463.01 397.822C466.786 398.063 476.945 398.539 482.632 397.22C483.316 392.81 484.251 388.875 484.251 388.875L463.578 390.243C463.578 390.243 463.218 394.014 463.01 397.822Z" fill="black"/>
<path d="M448.104 270.227C448.104 270.227 448.422 273.647 448.929 278.435C450.071 289.302 452.179 307.244 453.816 308.705C456.162 310.812 455.142 326.298 454.226 329.034C453.309 331.77 454.226 351.469 454.226 351.469C456.531 359.698 457.661 368.156 457.586 376.64C457.28 389.773 461.556 396.613 461.556 396.613C461.556 396.613 481.716 398.254 485.888 394.763C490.061 391.272 485.888 363.507 485.888 363.507C485.888 363.507 478.338 340.815 480.17 337.532C482.003 334.249 484.141 326.314 484.141 326.314V298.681C487.104 294.303 488.417 288.284 488.986 282.845C489.438 278.192 489.452 273.514 489.028 268.859C489.028 268.859 492.822 275.808 496.689 282.681C500.183 288.891 503.739 295.036 504.631 295.945C506.463 297.86 504.936 306.615 504.631 310.993C504.325 315.37 507.991 324.125 507.991 324.125C503.409 326.588 502.492 355.589 502.492 355.589C502.492 355.589 505.852 362.703 498.827 370.637C491.802 378.572 494.551 393.62 495.467 393.072C496.383 392.525 515.016 397.176 518.681 393.072C522.347 388.968 526.317 377.751 526.317 377.751C526.317 377.751 524.485 366.26 528.456 355.863C531.4 348.158 535.01 330.095 536.684 321.247C537.284 318.036 537.385 314.765 536.984 311.529C536.214 305.067 535.029 293.105 535.45 283.622C535.591 280.53 535.493 275.616 535.261 269.854C534.473 250.101 532.09 220.421 532.09 220.421L515.535 210.374L504.606 203.742L501.93 204.109L452.069 211.009L450.133 233.039L448.104 270.227Z" fill="#444053"/>
<path opacity="0.1" d="M515.547 210.385L516.421 214.686C516.421 214.686 523.752 246.15 525.279 262.292C526.806 278.434 533.221 273.783 533.221 273.783C533.78 272.428 534.467 271.117 535.273 269.865C534.485 250.112 532.103 220.432 532.103 220.432L515.547 210.385Z" fill="black"/>
<path d="M463.175 91.0194C463.175 91.0194 497.385 115.55 491.069 110.626C487.611 107.922 489.963 96.3984 492.798 86.5488C495.131 78.4229 497.789 71.4297 497.789 71.4297C497.789 71.4297 467.928 46.4064 470.097 66.8661C470.86 74.0782 470.225 79.2054 469.083 82.8279C466.987 89.4654 463.175 91.0194 463.175 91.0194Z" fill="#EFB7B9"/>
<path opacity="0.1" d="M466.022 84.4968L487.709 99.6815L494.019 93.3888C494.019 93.3888 499.42 91.293 499.823 93.6624C500.226 96.0317 501.759 110.625 498.601 111.993C495.443 113.361 491.374 114.275 487.813 113.821C484.251 113.367 480.274 109.805 477.629 108.437C474.984 107.069 465.209 99.9551 465.209 99.9551L460.322 93.8484L466.022 84.4968Z" fill="black"/>
<path d="M466.022 85.044L487.709 100.229L494.019 93.936C494.019 93.936 499.42 91.8402 499.823 94.2096C500.226 96.5789 501.759 111.173 498.601 112.541C495.443 113.909 491.374 114.822 487.813 114.368C484.251 113.914 480.274 110.352 477.629 108.984C474.984 107.616 465.209 100.502 465.209 100.502L460.322 94.3956L466.022 85.044Z" fill="#A36468"/>
<path opacity="0.1" d="M448.104 270.227C448.104 270.227 448.422 273.647 448.929 278.435C455.649 278.664 468.685 279.376 477.837 281.521C481.488 282.33 485.23 282.769 488.992 282.829C489.444 278.176 489.458 273.497 489.034 268.842C489.034 268.842 492.828 275.792 496.695 282.664C500.003 282.465 503.294 282.083 506.549 281.521L502.474 234.095C502.474 234.095 502.609 218.177 501.937 204.092L452.069 211.009L450.133 233.039L448.104 270.227Z" fill="black"/>
<path opacity="0.1" d="M485.571 98.4066C485.571 98.4066 470.756 83.9004 467.244 86.2041C463.731 88.5078 461.459 94.122 461.459 94.122L473.524 105.974L485.571 98.4066Z" fill="black"/>
<path d="M484.96 97.8594C484.96 97.8594 470.146 83.3532 466.633 85.6569C463.12 87.9606 460.848 93.5748 460.848 93.5748L472.913 105.427L484.96 97.8594Z" fill="#A36468"/>
<path opacity="0.1" d="M497.275 107.156L488.723 97.553C488.723 97.553 490.067 88.4749 493.195 89.635C496.322 90.7951 497.275 95.4408 497.275 95.4408V107.156Z" fill="black"/>
<path d="M497.886 106.521L489.376 96.9182C489.376 96.9182 490.72 87.8402 493.848 89.0002C496.976 90.1603 497.886 94.806 497.886 94.806V106.521Z" fill="#A36468"/>
<path opacity="0.1" d="M458.691 89.2848C458.691 89.2848 476.23 106.248 486.701 107.386C487.648 107.49 488.595 107.632 489.529 107.802C492.266 108.283 498.228 107.802 497.282 93.7773L498.601 91.293L506.75 95.7636L509.5 115.824L514.387 167.26L521.614 224.536C521.614 224.536 499.42 222.62 493.207 227.638C486.994 232.656 485.265 200.278 485.265 200.278L468.264 134.615L450.139 92.3874L458.691 89.2848Z" fill="black"/>
<path opacity="0.1" d="M450.139 94.5762L468.264 136.803L485.265 202.467C485.265 202.467 487 234.839 493.207 229.827C495.235 228.185 498.974 227.288 503.085 226.823C508.141 226.334 513.234 226.231 518.309 226.516C520.337 226.615 521.614 226.724 521.614 226.724L514.381 169.449L509.493 118.013L506.744 97.9524L498.601 93.4818L497.275 95.9661C497.275 96.3327 497.318 96.6938 497.337 97.0605C497.911 110.018 492.187 110.478 489.529 110.007C488.589 109.838 487.648 109.695 486.695 109.591C479.278 108.776 468.319 100.037 462.558 95.0139C460.182 92.9346 458.685 91.49 458.685 91.49L450.139 94.5762Z" fill="black"/>
<path d="M450.139 92.9346L468.264 135.162L485.265 200.826C485.265 200.826 487 233.198 493.207 228.185C495.235 226.544 498.974 225.646 503.085 225.181C508.141 224.692 513.234 224.59 518.309 224.875C520.337 224.973 521.614 225.083 521.614 225.083L514.381 167.808L509.493 116.371L506.744 96.3108L498.601 91.8402L497.275 94.3245C497.275 94.6911 497.318 95.0523 497.337 95.4189C497.911 108.377 492.187 108.836 489.529 108.366C488.589 108.196 487.648 108.054 486.695 107.95C479.278 107.134 468.319 98.3956 462.558 93.3724C460.182 91.293 458.685 89.8484 458.685 89.8484L450.139 92.9346Z" fill="#AFBEDC"/>
<path opacity="0.1" d="M497.275 94.3245C497.275 94.6911 497.318 95.0523 497.337 95.4189L497.477 95.5064C499.627 96.7759 503.079 118.215 503.079 118.215L507.557 172.842L515.804 213.608C515.804 213.608 516.885 218.254 518.302 224.891C520.331 224.99 521.607 225.099 521.607 225.099L514.38 167.808L509.493 116.371L506.744 96.3108L498.601 91.8402L497.275 94.3245Z" fill="black"/>
<path d="M491.667 90.6747C491.667 90.6747 496.555 94.2205 498.705 95.49C500.855 96.7595 504.307 118.199 504.307 118.199L508.785 172.825L517.032 213.592C517.032 213.592 524.363 245.056 525.89 261.198C527.417 277.34 533.831 272.689 533.831 272.689C533.831 272.689 538.621 260.103 550.02 259.376C561.419 258.648 555.518 252.897 555.518 252.897C555.518 252.897 548.841 209.794 544.449 202.117C544.38 201.985 544.303 201.857 544.217 201.734C543.569 200.782 542.854 198.883 542.103 196.344C537.759 181.657 532.206 145.455 532.206 145.455L528.743 100.584C519.879 87.6432 492.388 88.0919 492.388 88.0919L491.667 90.6747Z" fill="#67647E"/>
<path opacity="0.1" d="M450.139 92.9346L468.264 135.162L485.265 200.826C485.265 200.826 487 233.198 493.207 228.185C495.235 226.544 498.974 225.646 503.085 225.181C503.012 214.051 502.633 194.079 500.843 185.685C499.294 178.014 498.647 170.22 498.913 162.429L476.713 119.107C476.713 119.107 460.017 100.672 459.913 98.0345C459.876 97.0605 461.062 95.2547 462.564 93.356C460.188 91.2766 458.691 89.832 458.691 89.832L450.139 92.9346Z" fill="black"/>
<path d="M505.932 280.443L501.863 233.017C501.863 233.017 502.169 197.63 499.621 185.685C498.069 178.015 497.419 170.22 497.685 162.429L475.491 119.107C475.491 119.107 458.795 100.672 458.691 98.0345C458.587 95.397 467.433 86.6254 467.433 86.6254C467.433 86.6254 448.104 88.65 445.557 96.3984C443.01 104.147 429.063 107.162 429.063 107.162C429.063 107.162 422.343 112.634 422.447 128.322C422.551 144.01 443.828 156.316 443.828 156.316C443.828 156.316 447.39 185.865 444.335 199.184C441.281 212.503 443.926 277.247 443.926 277.247C443.926 277.247 464.391 277.433 477.22 280.443C490.049 283.452 505.932 280.443 505.932 280.443Z" fill="#67647E"/>
<path d="M475.796 205.203L460.115 258.369C460.115 258.369 457.976 263.113 446.98 259.463C435.984 255.813 404.016 243.961 404.016 243.961C404.016 243.961 401.163 239.764 406.46 232.016L422.447 190.062L475.796 205.203Z" fill="#B07473"/>
<path d="M455.514 228.711L430.162 203.742L413.974 197.86L407.327 227.884L438.104 257.843L455.514 228.711Z" fill="#E1E7EF"/>
<path d="M428.421 237.05C428.421 237.05 435.96 241.017 437.945 241.154C439.931 241.291 446.944 253.149 443.981 253.056C441.018 252.962 434.127 249.772 434.817 251.414C435.508 253.056 439.998 257.98 441.305 257.515C442.612 257.05 443.217 261.127 437.64 259.704C432.062 258.281 424.658 257.034 424.658 257.034C424.658 257.034 420.687 254.434 420.535 252.59C420.382 250.746 416.949 241.028 416.949 241.028L428.421 237.05Z" fill="#EFB7B9"/>
<path d="M549.446 96.9674C549.446 96.9674 542.922 84.3546 539.024 80.1794C535.127 76.0043 518.125 71.5228 516.421 72.754C514.716 73.9852 524.973 80.9017 526.806 81.7882C528.639 82.6747 514.961 90.91 514.686 91.0906C514.411 91.2711 503.995 90.2588 509.341 93.4052C514.686 96.5516 530.49 99.7582 530.49 99.7582C531.554 99.5926 532.644 99.6232 533.695 99.8481C534.745 100.073 535.733 100.487 536.599 101.066C539.659 103.058 549.446 96.9674 549.446 96.9674Z" fill="#EFB7B9"/>
<path opacity="0.1" d="M413.723 237.685C414.587 240.222 415.746 242.67 417.181 244.99C418.708 243.753 433.29 239.447 433.29 239.447L431.671 237.209L429.032 233.564C429.032 233.564 416.032 231.036 413.821 233.564C413.076 234.412 413.21 235.977 413.723 237.685Z" fill="black"/>
<path d="M413.112 237.138C413.976 239.674 415.135 242.123 416.57 244.443C418.097 243.206 432.679 238.9 432.679 238.9L431.06 236.661L428.421 233.017C428.421 233.017 415.421 230.489 413.21 233.017C412.465 233.865 412.599 235.43 413.112 237.138Z" fill="#A36468"/>
<path opacity="0.1" d="M534.54 99.8183C535.008 100.757 535.56 101.661 536.189 102.521C538.541 105.843 542.103 109.761 542.103 109.761C542.103 109.761 555.995 104.037 555.995 103.786C555.995 103.534 551.78 97.5858 548.352 92.8963C546.966 91.003 545.713 89.3286 544.919 88.3491C544.919 88.3491 539.733 98.0673 534.613 98.133C533.275 98.1494 533.99 98.6309 534.54 99.8183Z" fill="black"/>
<path d="M535.151 100.366C535.619 101.305 536.171 102.209 536.8 103.069C539.152 106.39 542.714 110.308 542.714 110.308C542.714 110.308 556.606 104.584 556.606 104.333C556.606 104.081 552.39 98.133 548.963 93.4435C547.577 91.5502 546.324 89.8758 545.53 88.8963C545.53 88.8963 540.344 98.6145 535.224 98.6802C533.886 98.6966 534.601 99.1781 535.151 100.366Z" fill="#A36468"/>
<path d="M456.81 200.732L458.593 195.945L433.559 194.369L442.912 195.261L454.824 197.548L453.908 200.732H456.81Z" fill="#B07473"/>
<path opacity="0.1" d="M413.112 237.138C415.874 235.972 423.241 233.548 431.06 236.661L428.421 233.017C428.421 233.017 415.421 230.489 413.21 233.017C412.465 233.865 412.599 235.43 413.112 237.138Z" fill="black"/>
<path d="M411.652 207.572C411.713 208.366 411.768 209.159 411.823 209.947C411.976 212.36 412.08 214.752 412.147 217.061C412.453 227.753 411.958 236.574 411.958 236.574C411.958 236.574 421.427 231.469 431.506 235.753L432.52 218.451V218.15L433.553 210.582L436.901 186.139C436.901 186.139 443.211 152.213 445.148 150.938C447.084 149.663 430.792 122.21 430.792 122.21L422.441 128.322L417.248 159.693V175.742C417.248 175.742 410.528 193.165 411.652 207.572Z" fill="#67647E"/>
<path opacity="0.1" d="M534.852 99.594L536.807 103.069C539.158 106.39 542.72 110.308 542.72 110.308C542.72 110.308 556.612 104.584 556.612 104.333C556.612 104.081 552.397 98.133 548.969 93.4435C547.913 92.3491 547.271 91.7472 547.271 91.7472C551.346 100.776 534.852 99.594 534.852 99.594Z" fill="black"/>
<path d="M523.037 98.0345L528.743 100.595C528.743 100.595 535.768 109.077 537.802 109.991C539.837 110.905 540.857 110.812 540.857 110.812L534.852 100.141C534.852 100.141 551.346 101.323 547.271 92.2944C547.271 92.2944 565.702 110.352 567.736 117.652C567.736 117.652 577.92 132.787 575.476 140.267C573.033 147.747 563.154 149.203 556.025 146.927C548.896 144.65 527.008 134.615 527.008 134.615L523.037 98.0345Z" fill="#67647E"/>
<path opacity="0.1" d="M543.502 115.824C543.502 115.824 558.878 131.238 557.656 133.334C556.435 135.43 544.314 118.926 543.502 115.824Z" fill="black"/>
<path opacity="0.2" d="M474.116 74.3299C474.116 74.3299 452.478 68.4913 440.26 89.5584C428.043 110.625 427.633 112.087 428.244 113.088C428.855 114.089 452.576 108.53 453.902 110.992C455.227 113.455 440.462 123.578 440.462 123.578L497.679 162.429L473.64 116.661C472.023 113.455 469.868 110.49 467.25 107.868C463.297 103.906 457.891 97.8375 459.803 95.9661C461.489 94.3245 464.189 90.0399 467.83 85.1097C470.5 81.4927 474.74 77.4161 474.116 74.3299Z" fill="black"/>
<path d="M474.727 73.7827C474.727 73.7827 453.089 67.9441 440.871 89.0112C428.653 110.078 428.244 111.539 428.855 112.541C429.466 113.542 453.187 107.983 454.513 110.445C455.838 112.907 441.073 123.03 441.073 123.03L497.679 162.429L474.251 116.114C472.634 112.908 470.479 109.942 467.861 107.32C463.908 103.359 458.502 97.2903 460.414 95.4189C462.1 93.7773 464.8 89.4927 468.441 84.5625C471.111 80.9455 475.35 76.8689 474.727 73.7827Z" fill="#67647E"/>
<path opacity="0.1" d="M474.727 73.7827C474.727 73.7827 453.089 67.9441 440.871 89.0112C428.653 110.078 428.244 111.539 428.855 112.541C429.466 113.542 453.187 107.983 454.513 110.445C455.838 112.907 441.073 123.03 441.073 123.03L497.679 162.429L473.127 113.887C472.176 112 470.889 110.264 469.315 108.749C465.448 105.017 458.251 97.5365 460.414 95.4189C462.1 93.7773 464.8 89.4927 468.441 84.5625C471.111 80.9455 475.35 76.8689 474.727 73.7827Z" fill="black"/>
<path d="M470.298 170.358C472.771 170.358 474.776 168.562 474.776 166.347C474.776 164.131 472.771 162.336 470.298 162.336C467.825 162.336 465.82 164.131 465.82 166.347C465.82 168.562 467.825 170.358 470.298 170.358Z" fill="#444053"/>
<path d="M470.298 195.255C472.771 195.255 474.776 193.459 474.776 191.244C474.776 189.029 472.771 187.233 470.298 187.233C467.825 187.233 465.82 189.029 465.82 191.244C465.82 193.459 467.825 195.255 470.298 195.255Z" fill="#444053"/>
<path d="M412.147 217.061C414.725 217.608 426.949 217.362 432.508 218.451V218.15L433.541 210.582C427.273 209.882 413.65 208.552 411.805 209.947C409.416 211.769 409.074 216.432 412.147 217.061Z" fill="#67647E"/>
<path opacity="0.1" d="M412.147 217.608C414.725 218.155 426.949 217.909 432.508 218.998V218.697L433.541 211.129C427.273 210.429 413.65 209.099 411.805 210.494C409.416 212.317 409.074 216.979 412.147 217.608Z" fill="black"/>
<path opacity="0.1" d="M412.147 217.061C414.725 217.608 426.949 217.362 432.508 218.451V218.15L433.541 210.582C427.273 209.882 413.65 208.552 411.805 209.947C409.416 211.769 409.074 216.432 412.147 217.061Z" fill="black"/>
<path d="M414.811 215.824C416.302 215.824 417.511 214.741 417.511 213.406C417.511 212.07 416.302 210.987 414.811 210.987C413.319 210.987 412.11 212.07 412.11 213.406C412.11 214.741 413.319 215.824 414.811 215.824Z" fill="#444053"/>
<path opacity="0.1" d="M465.82 223.075L454.415 257.915C454.415 257.915 451.361 259.19 451.361 256.913C451.361 254.637 465.82 223.075 465.82 223.075Z" fill="white"/>
<path opacity="0.1" d="M470.194 81.1151C470.915 81.6328 471.667 82.1133 472.449 82.5542C476.328 84.743 479.779 87.7198 484.728 87.7198C487.472 87.7234 490.199 87.3222 492.798 86.5324C495.131 78.4065 497.789 71.4133 497.789 71.4133C497.789 71.4133 467.928 46.39 470.097 66.8497C470.86 74.0617 471.337 77.4927 470.194 81.1151Z" fill="black"/>
<path d="M459.644 64.1575C459.644 68.6012 461.115 72.9452 463.872 76.64C466.628 80.3349 470.545 83.2146 475.129 84.9152C479.712 86.6157 484.755 87.0607 489.621 86.1937C494.487 85.3268 498.956 83.1869 502.464 80.0447C505.972 76.9025 508.361 72.8991 509.329 68.5408C510.297 64.1824 509.8 59.6649 507.902 55.5594C506.003 51.4539 502.788 47.9449 498.663 45.4761C494.538 43.0073 489.689 41.6896 484.728 41.6896C481.429 41.6758 478.161 42.2476 475.11 43.3718C472.06 44.496 469.289 46.1505 466.957 48.2396C464.624 50.3287 462.777 52.811 461.522 55.5431C460.267 58.2753 459.629 61.2031 459.644 64.1575V64.1575Z" fill="#EFB7B9"/>
<path d="M498.943 82.9647C499.174 83.4787 499.586 83.9111 500.116 84.1959L504.099 86.3847L511.546 90.4394L523.33 96.8526C523.607 97.0021 523.888 97.1389 524.173 97.263C525.555 97.8916 527.078 98.2283 528.628 98.2473C530.177 98.2662 531.71 97.9669 533.11 97.3724C534.168 96.9463 535.098 96.3015 535.823 95.4911C536.548 94.6806 537.049 93.7276 537.283 92.7103C537.597 91.2941 537.464 89.8276 536.901 88.4748C536.338 87.122 535.366 85.9361 534.094 85.0495C534.03 85.0006 533.955 84.965 533.874 84.9455C531.366 84.3151 529.006 83.2824 526.91 81.8976L519.494 77.3012L512.872 71.8785L509.524 69.8046C509.033 69.4999 508.455 69.3277 507.859 69.3083C507.262 69.2889 506.672 69.4232 506.158 69.6951C502.725 71.4735 495.889 76.0481 498.943 82.9647Z" fill="#E1E7EF"/>
<path d="M504.099 86.3518L511.546 90.4066C513.098 84.8033 517.044 80.847 520.471 77.8593L512.872 71.8401C507.093 74.4065 504.796 82.9647 504.099 86.3518Z" fill="#A36468"/>
<path opacity="0.1" d="M524.155 97.2301C525.536 97.8587 527.06 98.1954 528.609 98.2144C530.159 98.2333 531.692 97.9341 533.092 97.3395C534.15 96.9134 535.079 96.2686 535.805 95.4582C536.53 94.6477 537.03 93.6947 537.265 92.6774C537.578 91.2612 537.446 89.7948 536.883 88.442C536.32 87.0892 535.348 85.9032 534.076 85.0166C532.226 85.7179 530.514 86.6804 529.005 87.8675C526.9 89.5003 525.375 91.65 524.619 94.0509C524.32 95.0896 524.164 96.1573 524.155 97.2301V97.2301Z" fill="black"/>
<path opacity="0.1" d="M459.644 64.1575C459.639 67.4297 460.436 70.6631 461.978 73.6295C463.491 74.9791 464.644 76.6178 465.35 78.4229C467.048 80.2724 467.714 81.3176 469.981 82.598C470.891 81.7389 472.943 81.2191 473.316 80.1083C474.263 77.2464 473.725 74.1876 473.677 71.2054C473.677 69.8812 473.884 68.3162 475.185 67.6814C476.267 67.1342 477.629 67.5282 478.692 68.0645C479.755 68.6007 480.812 69.2957 482.034 69.4215C483.866 69.6076 485.54 68.453 486.566 67.0959C487.593 65.7389 488.185 64.152 489.157 62.7621C490.44 60.929 492.333 59.5227 494.197 58.1547C496.329 56.5788 498.399 54.8332 500.672 53.4215C502.028 52.5733 503.653 52.1793 504.991 51.3257L505.205 51.1834C502.13 47.2903 497.752 44.3745 492.705 42.858C487.657 41.3414 482.202 41.3027 477.128 42.7475C472.054 44.1923 467.625 47.0457 464.482 50.8947C461.339 54.7437 459.645 59.3887 459.644 64.1575V64.1575Z" fill="black"/>
<path d="M509.066 39.3202C508.534 36.1683 505.62 33.208 502.065 33.1533C499.126 33.1095 496.622 34.8934 494.019 36.1136C491.354 37.3438 488.418 38.0308 485.422 38.1254C482.426 38.22 479.443 37.7199 476.688 36.6608C475.094 36.0315 473.469 35.1943 471.728 35.3256C469.987 35.457 468.6 36.4748 467.39 37.5144C464.535 40.0488 462.297 43.0858 460.817 46.4338C460.383 47.4187 459.986 48.4638 459.143 49.208C458.495 49.6843 457.795 50.1004 457.054 50.4502C455.777 51.2096 454.682 52.1899 453.833 53.3334C452.984 54.477 452.399 55.7608 452.112 57.1096C451.561 59.8222 451.872 62.6188 453.01 65.1807C453.698 66.9376 454.819 68.5329 456.29 69.8483C457.402 70.784 458.734 71.4899 459.901 72.36C461.801 73.8086 463.249 75.6732 464.106 77.7724C464.962 79.8715 465.197 82.1335 464.788 84.3381C468.038 85.0057 471.153 82.401 472.119 79.5392C473.084 76.6773 472.528 73.624 472.479 70.6363C472.479 69.3121 472.687 67.7526 473.988 67.1178C475.069 66.5706 476.432 66.9646 477.495 67.5008C478.558 68.0371 479.608 68.7266 480.836 68.8579C482.669 69.0439 484.343 67.8894 485.369 66.5323C486.395 65.1753 486.982 63.5884 487.959 62.1985C489.236 60.3654 491.136 58.9591 492.999 57.5911C495.131 56.0152 497.202 54.2696 499.469 52.8578C500.831 52.0097 502.456 51.6157 503.794 50.7621C507.813 48.1848 509.066 43.457 509.066 39.3202Z" fill="#585268"/>
<path opacity="0.1" d="M489.645 76.8853C489.645 76.8853 489.987 76.9564 490.58 77.1042C490.296 76.9576 489.973 76.8821 489.645 76.8853V76.8853Z" fill="black"/>
<g opacity="0.1">
<path opacity="0.1" d="M470.872 77.7718C471.819 74.9099 471.282 71.8511 471.233 68.8689C471.233 67.5447 471.441 65.9797 472.742 65.3449C473.823 64.7977 475.185 65.1917 476.248 65.728C477.311 66.2642 478.362 66.9591 479.59 67.085C481.423 67.271 483.096 66.1219 484.123 64.7594C485.149 63.3969 485.736 61.8155 486.713 60.4256C487.99 58.5925 489.89 57.1862 491.753 55.8182C493.885 54.2478 495.956 52.4967 498.222 51.085C499.585 50.2368 501.21 49.8428 502.547 48.9892C506.592 46.3955 507.844 41.6677 507.844 37.5364C507.708 36.7442 507.434 35.976 507.031 35.26C508.108 36.3723 508.813 37.734 509.066 39.1889C509.066 43.3202 507.844 48.048 503.769 50.6417C502.431 51.4953 500.806 51.8893 499.444 52.7375C497.178 54.1493 495.107 55.9003 492.975 57.4707C491.111 58.8387 489.212 60.245 487.935 62.0781C486.957 63.468 486.377 65.0549 485.345 66.412C484.312 67.769 482.632 68.9236 480.812 68.7375C479.59 68.6117 478.551 67.9113 477.47 67.3805C476.389 66.8497 475.027 66.4721 473.964 66.9975C472.662 67.6322 472.43 69.1862 472.455 70.5214C472.504 73.5036 473.066 76.5406 472.094 79.4243C471.123 82.308 468.026 84.8963 464.764 84.2177C464.866 83.7042 464.929 83.185 464.953 82.6637C467.671 82.4558 470.06 80.2287 470.872 77.7718Z" fill="black"/>
<path opacity="0.1" d="M455.069 68.0754C456.18 69.0111 457.512 69.717 458.679 70.5871C459.964 71.5567 461.042 72.7264 461.862 74.0399C461.28 73.3772 460.623 72.7702 459.901 72.2287C458.728 71.3586 457.402 70.6527 456.29 69.717C455.403 68.9532 454.653 68.0709 454.067 67.1014C454.376 67.4454 454.711 67.7708 455.069 68.0754V68.0754Z" fill="black"/>
</g>
<path opacity="0.1" d="M488.815 263.403C489.26 264.59 489.896 265.75 489.981 267.004C490.128 269.132 488.674 271.118 488.57 273.253C488.448 275.737 490.134 277.964 491.747 279.983C489.835 279.983 487.745 279.392 486.774 277.92C486.441 277.354 486.201 276.747 486.059 276.12C484.331 269.942 482.651 263.184 485.656 257.417C486.117 256.419 486.791 255.512 487.642 254.746C488.149 257.657 487.721 260.519 488.815 263.403Z" fill="black"/>
<path opacity="0.1" d="M536.599 219.802L541.675 213.668C542.897 212.185 544.162 210.642 544.601 208.842C545.078 206.867 544.522 204.82 544.449 202.823C544.449 202.598 544.449 202.369 544.449 202.139C544.38 202.007 544.303 201.879 544.217 201.756C543.569 200.804 542.854 198.905 542.103 196.366C541.363 197.025 540.788 197.818 540.417 198.691C538.053 203.857 540.24 209.92 538.285 215.217C537.723 216.738 536.806 218.194 536.599 219.802Z" fill="black"/>
<path opacity="0.1" d="M523.672 405.488C521.164 407.098 518.3 408.209 515.273 408.746C512.246 409.283 509.125 409.234 506.121 408.602" fill="black"/>
<path opacity="0.1" d="M481.612 406.391C480.328 407.469 478.81 408.299 477.153 408.831C475.496 409.362 473.735 409.583 471.979 409.481C470.223 409.378 468.509 408.954 466.943 408.234C465.377 407.515 463.993 406.515 462.876 405.297" fill="black"/>
<path opacity="0.1" d="M508.418 323.901C510.854 324.404 513.407 324.187 515.693 323.281C517.979 322.375 519.877 320.831 521.1 318.878" fill="black"/>
<path opacity="0.1" d="M479.462 337.729C475.591 337.983 471.741 337.036 468.557 335.048Z" fill="black"/>
<path opacity="0.1" d="M499.224 370.79C502.48 371.978 505.382 373.822 508.553 375.168C511.723 376.514 515.395 377.401 518.754 376.459" fill="black"/>
<path d="M323.372 378.905C352.09 378.905 375.371 372.891 375.371 365.472C375.371 358.053 352.09 352.038 323.372 352.038C294.653 352.038 271.372 358.053 271.372 365.472C271.372 372.891 294.653 378.905 323.372 378.905Z" fill="#5F5D7E"/>
<path opacity="0.1" d="M323.372 363.83C329.117 363.83 333.775 362.627 333.775 361.143C333.775 359.66 329.117 358.457 323.372 358.457C317.626 358.457 312.968 359.66 312.968 361.143C312.968 362.627 317.626 363.83 323.372 363.83Z" fill="black"/>
<path d="M328.277 290.281H317.586V361.143H328.277V290.281Z" fill="#5F5D7E"/>
<path opacity="0.1" d="M328.277 293.789V301.997C326.139 301.406 321.258 298.916 317.586 296.957V290.281H319.816L328.277 293.789Z" fill="black"/>
<path d="M303.09 259.43C303.09 259.43 338.387 251.294 347.172 245.203C355.957 239.113 390.454 267.775 385.897 278.582C381.34 289.389 364.748 297.231 364.748 297.231C364.748 297.231 318.857 303.917 311.05 289.969C303.243 276.021 303.09 259.43 303.09 259.43Z" fill="#474157"/>
<path opacity="0.1" d="M303.09 259.43C303.09 259.43 338.387 251.294 347.172 245.203C355.957 239.113 390.454 267.775 385.897 278.582C381.34 289.389 364.748 297.231 364.748 297.231C364.748 297.231 318.857 303.917 311.05 289.969C303.243 276.021 303.09 259.43 303.09 259.43Z" fill="black"/>
<path d="M300.035 256.147C300.035 256.147 335.333 248.01 344.118 241.92C352.902 235.83 387.4 264.492 382.842 275.299C378.285 286.106 361.693 293.948 361.693 293.948C361.693 293.948 315.803 300.634 307.995 286.686C300.188 272.738 300.035 256.147 300.035 256.147Z" fill="#474157"/>
<path opacity="0.1" d="M372.585 200.382C372.451 200.382 372.323 200.355 372.194 200.333C372.327 200.32 372.462 200.337 372.585 200.382V200.382Z" fill="black"/>
<path d="M268.012 231.917C264.487 231.146 254.768 230.434 250.144 244.328C249.067 247.555 247.696 250.697 246.044 253.723C241.603 261.882 235.879 278.653 261.079 282.347L321.557 294.659C321.557 294.659 353.935 298.216 356.073 296.848C358.211 295.48 357.906 292.47 357.906 292.47C357.906 292.47 322.168 292.47 315.143 282.621C308.118 272.771 307.812 259.365 307.812 259.365C307.812 259.365 308.692 238.664 271.769 232.651C270.523 232.448 269.265 232.191 268.012 231.917Z" fill="#474157"/>
<path opacity="0.1" d="M268.012 232.01C264.487 231.239 254.768 230.527 250.144 244.421C249.066 247.649 247.695 250.793 246.044 253.822C241.603 261.975 235.879 278.752 261.079 282.445L321.557 294.757C321.557 294.757 353.935 298.314 356.073 296.946C358.211 295.578 357.906 292.569 357.906 292.569C357.906 292.569 322.168 292.569 315.143 282.719C308.118 272.87 307.812 259.463 307.812 259.463C307.812 259.463 308.692 238.763 271.769 232.749C270.523 232.541 269.265 232.284 268.012 232.01Z" fill="black"/>
<path d="M394.791 217.761C394.441 215.758 393.292 213.937 391.556 212.636C389.82 211.335 387.616 210.642 385.353 210.686C377.589 210.817 355.419 211.66 341.906 217.012C338.937 218.188 335.962 219.332 332.908 220.295C330.146 221.176 326.854 222.582 325.223 224.601C323.592 226.62 285.209 253.055 340.495 278.5C340.495 278.5 370.123 286.057 381.731 268.328C381.731 268.328 389.978 249.28 389.367 242.686C388.756 236.092 394.865 218.308 394.865 218.308C394.865 218.308 394.853 218.122 394.791 217.761Z" fill="#474157"/>
<path opacity="0.1" d="M394.791 222.555C394.095 218.724 390.026 215.956 385.353 216.027C376.654 216.158 349.878 217.121 337.441 223.835C337.441 223.835 327.972 228.886 325.223 228.886C322.474 228.886 285.209 255.151 340.495 278.642C340.495 278.642 370.124 285.614 381.731 269.247C381.731 269.247 389.978 251.666 389.367 245.581C388.756 239.496 394.865 223.075 394.865 223.075C394.865 223.075 394.853 222.883 394.791 222.555Z" fill="black"/>
<path d="M365.236 278.517H355.462V297.16H365.236V278.517Z" fill="#5F5D7E"/>
<defs>
<linearGradient id="paint0_linear" x1="489.554" y1="425.997" x2="489.554" y2="31.4351" gradientUnits="userSpaceOnUse">
<stop stop-color="#808080" stop-opacity="0.25"/>
<stop offset="0.54" stop-color="#808080" stop-opacity="0.12"/>
<stop offset="1" stop-color="#808080" stop-opacity="0.1"/>
</linearGradient>
</defs>
</svg>
