<svg width="336" height="292" viewBox="0 0 336 292" fill="none" xmlns="http://www.w3.org/2000/svg">
<path fill-rule="evenodd" clip-rule="evenodd" d="M167.808 0.0297422C198.908 -1.13212 219.053 32.0091 241.756 53.3584C261.403 71.8335 276.919 92.1453 290.545 115.445C308.295 145.8 347.179 177.101 332.92 209.254C318.163 242.53 265.723 229.705 232.935 245.353C208.928 256.812 193.872 282.794 167.808 288.058C138.249 294.027 103.616 295.419 80.3636 276.164C57.3215 257.084 65.1744 220.216 52.8883 192.897C38.1841 160.201 -9.64178 135.327 1.73146 101.321C13.1412 67.2058 67.1044 77.4337 97.7576 58.7381C124.409 42.4833 136.638 1.19426 167.808 0.0297422Z" fill="#ABBCDB"/>
<path opacity="0.1" d="M195.217 65.4589C173.678 64.8455 153.161 59.1314 133.573 52.8819C113.984 46.6323 94.5763 39.6995 73.5514 36.3958C60.0276 34.2651 44.5654 33.9746 33.6682 39.9201C23.1858 45.6504 19.7958 55.5452 17.9746 64.7272C16.6042 71.6331 15.7988 78.9022 19.5524 85.3697C22.161 89.857 26.7891 93.6315 29.9897 97.9306C41.1303 112.894 33.2565 131.344 21.1843 145.952C15.5223 152.796 8.95574 159.344 4.58606 166.638C0.216374 173.931 -1.80017 182.292 2.01954 189.734C5.80921 197.11 14.8371 202.647 24.6193 206.548C44.4842 214.463 67.8954 216.728 90.7356 218.011C141.251 220.86 192.041 219.62 242.719 218.39C261.469 217.933 280.285 217.473 298.746 215.09C308.988 213.766 319.564 211.667 326.996 206.599C336.439 200.167 338.777 189.271 332.451 181.205C321.842 167.673 292.504 164.311 285.087 149.791C280.997 141.796 285.205 132.888 291.134 125.479C303.858 109.577 325.19 95.6169 326.314 77.4468C327.086 64.9612 316.832 52.4568 300.976 46.5489C284.357 40.3613 261.307 41.1361 249.048 51.3914C236.423 61.94 214.238 66.0023 195.217 65.4589Z" fill="#AFBEDC"/>
<path opacity="0.1" d="M241.294 241C262.706 241 280.063 238.471 280.063 235.35C280.063 232.23 262.706 229.701 241.294 229.701C219.883 229.701 202.526 232.23 202.526 235.35C202.526 238.471 219.883 241 241.294 241Z" fill="#AFBEDC"/>
<path d="M88.7731 139.802L88.677 144.548L87.8896 183.025L81.1547 197.146L57.9419 197.383V141.987L82.1675 140.271L88.7731 139.802Z" fill="#5F5D7E"/>
<path opacity="0.1" d="M88.7731 139.802L88.677 144.548L87.8896 183.025L81.1547 197.146L57.9419 197.383V141.987L82.1675 140.271L88.7731 139.802Z" fill="black"/>
<path d="M88.7731 139.802L88.677 144.548L87.8896 183.024L81.1547 197.146L82.9279 144.64L82.9218 144.605L82.1675 140.271L88.7731 139.802Z" fill="#5F5D7E"/>
<path opacity="0.1" d="M82.1675 140.271L88.7731 139.802L88.677 144.548L82.9218 144.605L57.9419 144.855V141.987L82.1675 140.271Z" fill="black"/>
<path d="M297.427 141.987V197.062H292.024L270.404 182.946V140.435L289.719 138.81L290.903 139.297L292.024 139.759L297.427 141.987Z" fill="#5F5D7E"/>
<path opacity="0.1" d="M297.427 139.297H292.024V197.062H297.427V139.297Z" fill="black"/>
<path opacity="0.1" d="M297.427 139.297V142.463L292.024 142.52L270.404 142.732V140.435L289.719 138.81L290.903 139.297L292.024 139.759V139.297H297.427Z" fill="black"/>
<path d="M297.427 137.5V141.987L31.8951 144.64V138.928L56.878 134.406L274.301 132.98L297.427 137.5Z" fill="#5F5D7E"/>
<path opacity="0.1" d="M297.427 137.5V141.987L31.8951 144.64V138.928L297.427 137.5Z" fill="black"/>
<path opacity="0.1" d="M77.1427 136.539C83.7536 136.539 89.1127 136.232 89.1127 135.853C89.1127 135.474 83.7536 135.167 77.1427 135.167C70.5318 135.167 65.1726 135.474 65.1726 135.853C65.1726 136.232 70.5318 136.539 77.1427 136.539Z" fill="black"/>
<path d="M87.1894 109.33C86.9359 109.643 86.7335 109.987 86.5883 110.352C86.5522 110.441 86.5162 110.543 86.4801 110.64C86.4121 110.611 86.3405 110.589 86.2667 110.575C85.9578 110.504 85.6381 110.479 85.3201 110.5C85.3201 110.391 85.3261 110.275 85.3381 110.153C85.3772 108.899 85.2119 107.151 83.8745 107.89C82.5943 108.603 83.5079 109.79 84.3343 110.556C84.4065 110.624 84.4786 110.686 84.5477 110.745C83.7934 111.229 83.6461 112.346 83.5229 113.513C83.3997 114.681 82.2907 115.961 81.5575 116.688L81.3471 116.889C81.0503 116.676 80.7063 116.522 80.3379 116.437C79.9695 116.352 79.5851 116.339 79.2103 116.397C79.1763 116.295 79.1432 116.187 79.1112 116.074C78.5101 114.151 77.2809 110.817 75.7032 110.086L75.9105 109.852C76.5807 109.066 77.335 107.901 76.211 107.603C75.0871 107.304 75.0089 108.614 75.06 109.593C75.06 109.717 75.0781 109.833 75.0901 109.943C74.8689 109.954 74.6523 110.004 74.4535 110.091C74.2546 110.179 74.0776 110.301 73.933 110.452C73.879 110.392 73.8249 110.333 73.7617 110.269C72.8602 109.314 71.2012 107.802 70.6994 108.948C70.2335 110.024 71.6911 111.396 72.7189 112.198L72.782 112.249C72.0938 114.751 75.0991 116.79 76.7189 117.68L76.9263 117.796C74.6934 120.15 73.32 124.565 73.32 124.565L79.571 125.566C79.571 125.566 83.7153 122.364 83.1773 119.356H83.2194C87.3607 118.614 88.3043 114.659 87.6582 112.313L87.7333 112.286C88.4866 112.008 89.147 111.56 89.6507 110.987C90.8107 109.542 88.3795 107.915 87.1894 109.33Z" fill="#AFBEDC"/>
<path opacity="0.1" d="M87.1894 109.33C86.9359 109.643 86.7335 109.987 86.5883 110.352C86.5522 110.441 86.5162 110.543 86.4801 110.64C86.4121 110.611 86.3405 110.589 86.2667 110.575C85.9578 110.504 85.6381 110.479 85.3201 110.5C85.3201 110.391 85.3261 110.275 85.3381 110.153C85.3772 108.899 85.2119 107.151 83.8745 107.89C82.5943 108.603 83.5079 109.79 84.3343 110.556C84.4065 110.624 84.4786 110.686 84.5477 110.745C83.7934 111.229 83.6461 112.346 83.5229 113.513C83.3997 114.681 82.2907 115.961 81.5575 116.688L81.3471 116.889C81.0503 116.676 80.7063 116.522 80.3379 116.437C79.9695 116.352 79.5851 116.339 79.2103 116.397C79.1763 116.295 79.1432 116.187 79.1112 116.074C78.5101 114.151 77.2809 110.817 75.7032 110.086L75.9105 109.852C76.5807 109.066 77.335 107.901 76.211 107.603C75.0871 107.304 75.0089 108.614 75.06 109.593C75.06 109.717 75.0781 109.833 75.0901 109.943C74.8689 109.954 74.6523 110.004 74.4535 110.091C74.2546 110.179 74.0776 110.301 73.933 110.452C73.879 110.392 73.8249 110.333 73.7617 110.269C72.8602 109.314 71.2012 107.802 70.6994 108.948C70.2335 110.024 71.6911 111.396 72.7189 112.198L72.782 112.249C72.0938 114.751 75.0991 116.79 76.7189 117.68L76.9263 117.796C74.6934 120.15 73.32 124.565 73.32 124.565L79.571 125.566C79.571 125.566 83.7153 122.364 83.1773 119.356H83.2194C87.3607 118.614 88.3043 114.659 87.6582 112.313L87.7333 112.286C88.4866 112.008 89.147 111.56 89.6507 110.987C90.8107 109.542 88.3795 107.915 87.1894 109.33Z" fill="black"/>
<path d="M74.7445 110.944L74.0142 112.859C74.0142 112.859 73.6085 112.604 73.0946 112.198C72.0698 111.39 70.6092 110.013 71.078 108.948C71.5799 107.802 73.2358 109.314 74.1404 110.269C74.5041 110.651 74.7445 110.944 74.7445 110.944Z" fill="#AFBEDC"/>
<path d="M76.2862 109.852C76.0635 110.113 75.8258 110.363 75.5739 110.602C75.5117 110.268 75.4686 109.931 75.4447 109.593C75.3846 108.614 75.4988 107.312 76.5957 107.603C77.6926 107.893 76.9563 109.066 76.2862 109.852Z" fill="#AFBEDC"/>
<path d="M85.7138 110.153C85.6927 110.782 85.6236 111.286 85.6236 111.286C85.3042 111.062 85.003 110.818 84.722 110.556C83.8956 109.79 82.9789 108.603 84.2622 107.89C85.5875 107.151 85.7528 108.899 85.7138 110.153Z" fill="#AFBEDC"/>
<path d="M90.0324 110.979C89.5287 111.552 88.8683 112 88.115 112.278C87.9056 112.359 87.6908 112.428 87.4719 112.485L86.6093 111.409C86.7018 111.052 86.8213 110.7 86.967 110.357C87.1122 109.993 87.3146 109.649 87.568 109.335C88.7611 107.915 91.1924 109.542 90.0324 110.979Z" fill="#AFBEDC"/>
<path opacity="0.1" d="M74.1404 110.269C74.5041 110.651 74.7415 110.944 74.7415 110.944L74.0112 112.859C74.0112 112.859 73.6055 112.604 73.0916 112.198C73.2053 111.584 73.4884 111.006 73.915 110.516C73.9902 110.427 74.0653 110.344 74.1404 110.269Z" fill="black"/>
<path opacity="0.1" d="M76.2862 109.852C76.0635 110.113 75.8258 110.363 75.5739 110.602C75.5117 110.268 75.4686 109.931 75.4447 109.593C75.7483 109.599 76.0423 109.69 76.2862 109.852V109.852Z" fill="black"/>
<path d="M79.8805 117.454L78.0623 118.17C77.7305 118.022 77.4075 117.858 77.0946 117.68C75.1832 116.628 71.3425 113.981 73.918 110.858C76.4935 107.734 78.6423 113.336 79.4868 116.074C79.7423 116.892 79.8805 117.454 79.8805 117.454Z" fill="#AFBEDC"/>
<path opacity="0.1" d="M84.713 110.559C84.9764 110.315 85.3347 110.17 85.7138 110.156C85.6927 110.785 85.6236 111.288 85.6236 111.288C85.3011 111.065 84.9969 110.821 84.713 110.559V110.559Z" fill="black"/>
<path opacity="0.1" d="M88.115 112.278C87.9056 112.359 87.6908 112.428 87.4719 112.485L86.6093 111.409C86.7018 111.052 86.8213 110.7 86.967 110.357C87.5229 110.643 87.9317 111.366 88.115 112.278Z" fill="black"/>
<path d="M83.6011 119.348C83.5009 119.366 83.4007 119.382 83.3005 119.397C77.2088 120.228 81.293 117.282 81.293 117.282C81.293 117.282 81.5665 117.056 81.9391 116.688C82.6724 115.961 83.7814 114.689 83.9076 113.513C84.0969 111.746 84.3193 110.088 86.6514 110.575C88.9835 111.062 89.3712 118.315 83.6011 119.348Z" fill="#AFBEDC"/>
<path d="M83.4898 132.932H71.8444V135.673H83.4898V132.932Z" fill="#474157"/>
<path d="M85.2088 124.024H69.9931V133.591H85.2088V124.024Z" fill="#474157"/>
<path opacity="0.1" d="M83.3756 132.932H71.7302V135.673H83.3756V132.932Z" fill="black"/>
<path opacity="0.1" d="M85.1608 124.024H69.945V133.591H85.1608V124.024Z" fill="black"/>
<path d="M84.2562 132.932H72.6107V135.673H84.2562V132.932Z" fill="#474157"/>
<path opacity="0.1" d="M79.4868 116.074C79.7423 116.881 79.8805 117.454 79.8805 117.454L78.0623 118.17C77.7305 118.022 77.4075 117.858 77.0946 117.68C77.8068 116.873 78.6093 116.263 79.4868 116.074Z" fill="black"/>
<path opacity="0.1" d="M83.6011 119.348C83.5009 119.366 83.4007 119.382 83.3006 119.397C77.2088 120.228 81.293 117.282 81.293 117.282C81.293 117.282 81.5665 117.056 81.9392 116.688C83.0691 117.503 83.55 118.42 83.6011 119.348Z" fill="black"/>
<path d="M73.6926 124.565C73.6926 124.565 77.1066 113.629 81.891 117C86.6755 120.371 79.9436 125.566 79.9436 125.566L73.6926 124.565Z" fill="#AFBEDC"/>
<path opacity="0.1" d="M75.4176 112.913C75.6284 112.913 75.7993 112.76 75.7993 112.571C75.7993 112.383 75.6284 112.23 75.4176 112.23C75.2069 112.23 75.036 112.383 75.036 112.571C75.036 112.76 75.2069 112.913 75.4176 112.913Z" fill="black"/>
<path opacity="0.1" d="M75.3846 114.514C75.5954 114.514 75.7663 114.361 75.7663 114.172C75.7663 113.984 75.5954 113.831 75.3846 113.831C75.1738 113.831 75.0029 113.984 75.0029 114.172C75.0029 114.361 75.1738 114.514 75.3846 114.514Z" fill="black"/>
<path opacity="0.1" d="M86.4861 113.228C86.6969 113.228 86.8678 113.075 86.8678 112.886C86.8678 112.698 86.6969 112.545 86.4861 112.545C86.2753 112.545 86.1045 112.698 86.1045 112.886C86.1045 113.075 86.2753 113.228 86.4861 113.228Z" fill="black"/>
<path opacity="0.1" d="M77.5544 121.423C77.7652 121.423 77.9361 121.27 77.9361 121.081C77.9361 120.892 77.7652 120.739 77.5544 120.739C77.3436 120.739 77.1727 120.892 77.1727 121.081C77.1727 121.27 77.3436 121.423 77.5544 121.423Z" fill="black"/>
<path opacity="0.1" d="M85.6867 115.883C85.8975 115.883 86.0684 115.73 86.0684 115.542C86.0684 115.353 85.8975 115.2 85.6867 115.2C85.4759 115.2 85.3051 115.353 85.3051 115.542C85.3051 115.73 85.4759 115.883 85.6867 115.883Z" fill="black"/>
<path opacity="0.1" d="M81.7318 119.424C81.9425 119.424 82.1134 119.271 82.1134 119.082C82.1134 118.893 81.9425 118.74 81.7318 118.74C81.521 118.74 81.3501 118.893 81.3501 119.082C81.3501 119.271 81.521 119.424 81.7318 119.424Z" fill="black"/>
<path opacity="0.1" d="M76.7249 113.599C76.9357 113.599 77.1066 113.446 77.1066 113.258C77.1066 113.069 76.9357 112.916 76.7249 112.916C76.5142 112.916 76.3433 113.069 76.3433 113.258C76.3433 113.446 76.5142 113.599 76.7249 113.599Z" fill="black"/>
<path opacity="0.1" d="M85.4313 114.256C85.6421 114.256 85.813 114.103 85.813 113.914C85.813 113.725 85.6421 113.572 85.4313 113.572C85.2205 113.572 85.0496 113.725 85.0496 113.914C85.0496 114.103 85.2205 114.256 85.4313 114.256Z" fill="black"/>
<path opacity="0.1" d="M84.124 116.911C84.3347 116.911 84.5056 116.758 84.5056 116.569C84.5056 116.381 84.3347 116.228 84.124 116.228C83.9132 116.228 83.7423 116.381 83.7423 116.569C83.7423 116.758 83.9132 116.911 84.124 116.911Z" fill="black"/>
<path opacity="0.1" d="M80.1059 121.167C80.3167 121.167 80.4876 121.014 80.4876 120.825C80.4876 120.637 80.3167 120.484 80.1059 120.484C79.8951 120.484 79.7242 120.637 79.7242 120.825C79.7242 121.014 79.8951 121.167 80.1059 121.167Z" fill="black"/>
<path opacity="0.1" d="M79.2764 119.483C79.4872 119.483 79.6581 119.33 79.6581 119.141C79.6581 118.952 79.4872 118.799 79.2764 118.799C79.0656 118.799 78.8948 118.952 78.8948 119.141C78.8948 119.33 79.0656 119.483 79.2764 119.483Z" fill="black"/>
<path opacity="0.1" d="M77.299 115.684C77.5097 115.684 77.6806 115.531 77.6806 115.342C77.6806 115.154 77.5097 115.001 77.299 115.001C77.0882 115.001 76.9173 115.154 76.9173 115.342C76.9173 115.531 77.0882 115.684 77.299 115.684Z" fill="black"/>
<path opacity="0.1" d="M84.2562 132.932H72.6107V133.932H84.2562V132.932Z" fill="black"/>
<path d="M85.9752 124.024H70.7595V133.591H85.9752V124.024Z" fill="#474157"/>
<path opacity="0.1" d="M80.6168 122.708C80.8276 122.708 80.9985 122.555 80.9985 122.367C80.9985 122.178 80.8276 122.025 80.6168 122.025C80.406 122.025 80.2351 122.178 80.2351 122.367C80.2351 122.555 80.406 122.708 80.6168 122.708Z" fill="black"/>
<path opacity="0.1" d="M78.3178 123.136C78.5286 123.136 78.6994 122.983 78.6994 122.795C78.6994 122.606 78.5286 122.453 78.3178 122.453C78.107 122.453 77.9361 122.606 77.9361 122.795C77.9361 122.983 78.107 123.136 78.3178 123.136Z" fill="black"/>
<path d="M114.805 160.58C114.805 160.58 116.701 162.799 113.93 166.151C111.16 169.503 108.872 172.339 109.795 174.421C109.795 174.421 113.978 168.196 117.38 168.11C120.782 168.024 118.537 164.322 114.805 160.58Z" fill="#AFBEDC"/>
<path opacity="0.1" d="M114.805 160.58C114.969 160.794 115.1 161.027 115.193 161.274C118.513 164.771 120.284 168.029 117.089 168.11C114.117 168.185 110.549 172.952 109.696 174.147C109.723 174.238 109.756 174.328 109.795 174.416C109.795 174.416 113.978 168.19 117.38 168.104C120.782 168.018 118.537 164.322 114.805 160.58Z" fill="black"/>
<path d="M118.318 163.407C118.318 164.19 118.219 164.822 118.099 164.822C117.979 164.822 117.879 164.19 117.879 163.407C117.879 162.624 118.003 162.995 118.123 162.995C118.243 162.995 118.318 162.627 118.318 163.407Z" fill="#FFD037"/>
<path d="M119.526 164.341C118.76 164.714 118.093 164.94 118.024 164.846C117.954 164.752 118.541 164.37 119.307 163.996C120.073 163.622 119.77 163.894 119.827 163.996C119.884 164.098 120.293 163.967 119.526 164.341Z" fill="#FFD037"/>
<path d="M104.776 160.58C104.776 160.58 102.877 162.799 105.651 166.151C108.425 169.503 110.709 172.339 109.783 174.421C109.783 174.421 105.603 168.196 102.198 168.11C98.7928 168.024 101.032 164.322 104.776 160.58Z" fill="#AFBEDC"/>
<path opacity="0.1" d="M104.776 160.58C104.611 160.793 104.48 161.027 104.389 161.274C101.065 164.771 99.2977 168.029 102.489 168.11C105.465 168.185 109.032 172.952 109.885 174.147C109.855 174.241 109.822 174.332 109.783 174.416C109.783 174.416 105.603 168.19 102.198 168.104C98.7928 168.018 101.032 164.322 104.776 160.58Z" fill="black"/>
<path d="M101.248 163.407C101.248 164.19 101.347 164.822 101.467 164.822C101.588 164.822 101.687 164.19 101.687 163.407C101.687 162.624 101.564 162.995 101.443 162.995C101.323 162.995 101.248 162.627 101.248 163.407Z" fill="#FFD037"/>
<path d="M100.04 164.341C100.806 164.714 101.473 164.94 101.543 164.846C101.612 164.752 101.029 164.37 100.262 163.996C99.496 163.622 99.7965 163.894 99.7394 163.996C99.6823 164.098 99.2736 163.967 100.04 164.341Z" fill="#FFD037"/>
<path opacity="0.1" d="M109.786 191.405C120.737 191.405 129.615 190.185 129.615 188.679C129.615 187.174 120.737 185.954 109.786 185.954C98.8349 185.954 89.9572 187.174 89.9572 188.679C89.9572 190.185 98.8349 191.405 109.786 191.405Z" fill="#AFBEDC"/>
<path d="M119.989 171.429L119.893 172.124L119.761 173.103L119.707 173.509L119.574 174.491L119.514 174.897L119.382 175.876L117.864 187.012C117.729 188.007 115.917 188.782 113.726 188.782H105.84C103.652 188.782 101.84 188.007 101.705 187.012L100.184 175.876L100.052 174.897L99.9979 174.491L99.8597 173.509L99.8056 173.103L99.6733 172.124L99.5772 171.429C99.502 170.867 100.479 170.394 101.723 170.394H117.846C119.084 170.394 120.067 170.867 119.989 171.429Z" fill="#65617D"/>
<path d="M119.896 172.121L119.761 173.1H99.8085L99.6733 172.121H119.896Z" fill="#9D9CB5"/>
<path d="M119.707 173.509L119.574 174.488H99.9979L99.8626 173.509H119.707Z" fill="#9D9CB5"/>
<path d="M119.517 174.897L119.385 175.876H100.187L100.052 174.897H119.517Z" fill="#9D9CB5"/>
<path d="M169.94 133.609V134.164H151.635V133.714C152.788 133.333 153.782 132.644 154.484 131.74C155.186 130.837 155.561 129.762 155.56 128.662C155.56 127.631 155.229 126.622 154.607 125.754C153.984 124.887 153.097 124.197 152.049 123.768H169.817C168.757 124.201 167.86 124.899 167.236 125.779C166.611 126.659 166.286 127.682 166.299 128.725C166.312 129.767 166.663 130.784 167.309 131.651C167.956 132.518 168.87 133.199 169.94 133.609V133.609Z" fill="#C8CAD7"/>
<path opacity="0.1" d="M169.817 123.768C169 124.104 168.278 124.598 167.704 125.216C167.129 125.834 166.716 126.559 166.496 127.338H155.376C155.154 126.559 154.74 125.834 154.164 125.216C153.589 124.599 152.866 124.104 152.049 123.768H169.817Z" fill="black"/>
<path d="M130.673 120.944V124.056C130.673 125.773 132.079 127.166 133.81 127.166H187.668C189.399 127.166 190.806 125.773 190.806 124.056V120.944H130.673Z" fill="#C8CAD7"/>
<path opacity="0.1" d="M169.94 133.609V134.164H151.635V133.714C152.137 133.547 152.612 133.321 153.047 133.042H168.819C169.169 133.266 169.545 133.457 169.94 133.609V133.609Z" fill="black"/>
<path d="M175.076 133.214H146.505C145.998 133.214 145.588 133.581 145.588 134.035C145.588 134.488 145.998 134.855 146.505 134.855H175.076C175.582 134.855 175.993 134.488 175.993 134.035C175.993 133.581 175.582 133.214 175.076 133.214Z" fill="#C8CAD7"/>
<path d="M190.806 86.8605C190.806 86.4917 190.724 86.1264 190.567 85.7857C190.409 85.4449 190.178 85.1353 189.887 84.8745C189.595 84.6137 189.249 84.4068 188.869 84.2656C188.488 84.1245 188.08 84.0518 187.668 84.0518H133.81C132.978 84.0518 132.18 84.3478 131.592 84.8745C131.003 85.4012 130.673 86.1156 130.673 86.8605V121.549H190.806V86.8605Z" fill="#5F5D7E"/>
<path d="M189.165 88.1115V117.92C189.165 118.287 189.002 118.638 188.712 118.898C188.423 119.157 188.03 119.303 187.62 119.303H133.858C133.449 119.303 133.056 119.157 132.766 118.898C132.476 118.638 132.314 118.287 132.314 117.92V88.1115C132.318 87.8683 132.395 87.6306 132.536 87.4228C132.672 87.2128 132.867 87.0384 133.102 86.9171C133.336 86.7957 133.602 86.7317 133.873 86.7314H187.62C188.029 86.7314 188.422 86.8767 188.711 87.1354C189.001 87.3942 189.164 87.7452 189.165 88.1115Z" fill="#AFBEDC"/>
<path d="M160.741 86.0373C161.141 86.0373 161.465 85.747 161.465 85.3889C161.465 85.0308 161.141 84.7406 160.741 84.7406C160.341 84.7406 160.016 85.0308 160.016 85.3889C160.016 85.747 160.341 86.0373 160.741 86.0373Z" fill="white"/>
<path d="M160.741 125.783C161.727 125.783 162.526 125.068 162.526 124.185C162.526 123.303 161.727 122.587 160.741 122.587C159.755 122.587 158.956 123.303 158.956 124.185C158.956 125.068 159.755 125.783 160.741 125.783Z" fill="white"/>
<path d="M189.165 88.1115H132.314C132.314 87.7447 132.476 87.393 132.766 87.1337C133.056 86.8744 133.449 86.7287 133.858 86.7287H187.62C188.03 86.7287 188.423 86.8744 188.712 87.1337C189.002 87.393 189.165 87.7447 189.165 88.1115Z" fill="white"/>
<path d="M133.861 87.7644C134.074 87.7644 134.246 87.6103 134.246 87.4201C134.246 87.2299 134.074 87.0757 133.861 87.0757C133.649 87.0757 133.477 87.2299 133.477 87.4201C133.477 87.6103 133.649 87.7644 133.861 87.7644Z" fill="#EDEDF4"/>
<path d="M135.018 87.7644C135.231 87.7644 135.403 87.6103 135.403 87.4201C135.403 87.2299 135.231 87.0757 135.018 87.0757C134.806 87.0757 134.634 87.2299 134.634 87.4201C134.634 87.6103 134.806 87.7644 135.018 87.7644Z" fill="#EDEDF4"/>
<path d="M136.176 87.7644C136.388 87.7644 136.56 87.6103 136.56 87.4201C136.56 87.2299 136.388 87.0757 136.176 87.0757C135.963 87.0757 135.791 87.2299 135.791 87.4201C135.791 87.6103 135.963 87.7644 136.176 87.7644Z" fill="#EDEDF4"/>
<path d="M197.45 148.492C197.45 148.492 201.057 149.805 205.483 151.379C205.635 151.832 205.752 152.294 205.832 152.762C205.91 153.676 207.936 154.965 207.936 154.965C207.936 154.965 211.692 155.573 214.52 156.286C216.717 156.824 217.021 155.748 216.738 155.328L217.396 155.554C217.544 160.999 217.712 164.97 217.712 164.97C217.712 164.97 218.674 164.97 220.191 165.035C220.209 165.207 220.227 165.384 220.248 165.573C220.828 170.953 221.895 179.831 222.722 180.568C223.924 181.609 223.392 189.282 222.929 190.638C222.466 191.994 222.929 201.752 222.929 201.752C222.929 201.752 224.789 207.713 224.633 214.218C224.477 220.723 226.647 224.113 226.647 224.113L227.425 224.164C227.425 224.345 227.401 224.522 227.392 224.702C227.356 225.291 227.329 225.881 227.32 226.416C227.272 227.233 226.958 228.021 226.418 228.681C225.172 230.275 224.314 232.085 223.897 233.995C223.806 234.421 223.742 234.853 223.704 235.286C223.704 235.393 223.689 235.453 223.689 235.453C223.689 235.453 224.411 237.352 231.179 237.984C237.947 238.616 236.967 234.234 236.967 234.234C236.967 234.234 237 234.11 237.042 233.884C237.338 232.403 237.347 230.887 237.069 229.402C236.832 228.245 237.036 226.244 237.33 224.409C237.36 224.218 237.394 224.03 237.424 223.844C237.99 223.738 238.521 223.517 238.977 223.198C241.096 221.469 238.977 207.716 238.977 207.716C238.977 207.716 235.155 196.468 236.086 194.84C237.018 193.213 238.1 189.285 238.1 189.285V175.597C239.602 173.426 240.279 170.456 240.558 167.752C240.576 167.572 240.594 167.394 240.609 167.214C241.862 167.235 243.065 167.195 244.155 167.128L244.456 167.666C246.229 170.741 248.032 173.786 248.474 174.235C249.403 175.185 248.627 179.522 248.474 181.69C248.321 183.858 250.178 188.195 250.178 188.195C247.855 189.414 247.389 203.78 247.389 203.78C247.389 203.78 249.093 207.304 245.529 211.235C241.965 215.165 243.359 222.62 243.825 222.348C243.948 222.276 244.702 222.386 245.775 222.545C245.58 223.189 245.232 223.787 244.753 224.299C243.602 225.579 243.209 227.586 243.095 229.19C243.028 230.025 243.028 230.864 243.095 231.7L245.676 233.314C245.676 233.314 247.278 233.314 247.278 234.581C247.278 235.848 251.203 237.11 251.203 237.11C251.203 237.11 257.039 238.555 261.535 237.11C262.993 236.642 263.437 235.837 263.266 234.861C262.911 232.819 259.861 230.018 257.661 227.984C256.177 226.604 255.5 224.775 255.2 223.19C255.167 223.021 255.14 222.854 255.116 222.69C255.297 222.598 255.459 222.479 255.594 222.338C257.454 220.304 259.467 214.748 259.467 214.748C259.467 214.748 258.548 209.072 260.561 203.912C262.064 200.094 263.888 191.146 264.736 186.764C265.045 185.174 265.102 183.553 264.904 181.948C264.513 178.75 263.912 172.823 264.126 168.131C264.198 166.6 264.147 164.166 264.029 161.311V161.271C265.132 159.407 267.525 156.364 271.516 156.114C277.301 155.75 274.304 152.907 274.304 152.907C274.304 152.907 270.911 131.565 268.676 127.777C268.642 127.711 268.602 127.647 268.558 127.586C268.228 127.115 267.867 126.174 267.485 124.917C265.283 117.64 262.464 99.712 262.464 99.712L262.118 95.351C265.568 96.8656 271.969 99.6286 274.551 100.436C278.157 101.566 283.176 100.842 284.417 97.1374C285.658 93.4328 280.492 85.935 280.492 85.935C279.732 83.277 274.482 77.7431 271.75 74.9964C271.485 74.6386 271.224 74.2834 270.969 73.9445C270.265 73.0056 269.631 72.177 269.229 71.69L269.189 71.7573C269.09 71.6335 268.997 71.5178 268.916 71.421L268.85 71.5394C267.873 69.9252 266.776 68.2653 265.926 67.3748C263.948 65.3087 255.323 63.0865 254.47 63.6972C253.847 64.1411 256.429 66.0781 258.235 67.2672L256.51 66.2234L252.654 63.2372L250.956 62.2095C250.886 62.1666 250.811 62.1289 250.734 62.0965C251.176 60.5426 251.229 58.9205 250.891 57.3459C250.552 55.7714 249.829 54.2831 248.775 52.9872C248.654 52.8392 248.525 52.6913 248.396 52.5487C250.172 51.2251 250.734 49.0379 250.734 47.1143V47.0417C250.603 46.3208 250.245 45.6481 249.703 45.102C249.73 45.1504 249.757 45.2042 249.781 45.2553C249.471 44.8994 249.077 44.608 248.628 44.4013C248.18 44.1946 247.686 44.0775 247.182 44.0582C245.679 44.0366 244.42 44.9191 243.101 45.5244C241.743 46.1329 240.255 46.472 238.738 46.5184C237.221 46.5649 235.711 46.3176 234.31 45.7934C233.496 45.4813 232.675 45.067 231.792 45.1316C230.908 45.1962 230.208 45.7046 229.607 46.2346C228.162 47.4817 227.025 48.9867 226.271 50.652C226.049 51.139 225.85 51.6582 225.42 52.0241C225.093 52.2631 224.739 52.4706 224.363 52.6428C223.715 53.0124 223.157 53.4956 222.724 54.0635C222.29 54.6313 221.99 55.2719 221.841 55.9465C221.561 57.2896 221.718 58.6765 222.295 59.9416C222.644 60.8172 223.213 61.609 223.96 62.2552C224.522 62.7206 225.195 63.0623 225.79 63.5008C226.06 63.6978 226.312 63.9137 226.544 64.1465C223.842 64.682 221.371 65.9081 219.431 67.6761C217.974 68.9367 216.756 70.4015 215.825 72.0128C213.309 76.2447 211.782 78.8784 210.875 80.5491C210.421 80.6729 210.142 80.732 210.142 80.732C210.142 80.732 206.734 83.4411 206.785 91.2107L204.149 106.75V114.7C204.149 114.7 200.756 123.327 201.312 130.467C201.312 130.564 201.312 130.658 201.333 130.752L201.057 131.966C200.631 132.485 200.419 133.12 200.456 133.763C200.438 133.983 200.457 134.204 200.51 134.419L199.127 140.532L199.389 140.779L198.676 142.573C195.993 146.413 197.45 148.492 197.45 148.492ZM217.381 104.91C217.553 105.014 217.649 105.068 217.649 105.068C217.649 105.068 219.151 117.113 218.25 124.274L215.085 124.081L213.583 123.666L214.121 119.838C214.121 119.838 216.047 109.752 217.369 104.91H217.381ZM229.817 69.9494L230.118 69.5351C230.055 69.6831 229.992 69.8283 229.925 69.9629L229.817 69.9494ZM215.533 124.215L217.171 124.366L218.208 124.559C218.19 124.689 218.172 124.815 218.154 124.939L215.533 124.215ZM250.734 72.142C250.733 72.0079 250.723 71.8741 250.704 71.7411L251.99 72.4245L252.068 72.4675C251.624 72.3518 251.167 72.2496 250.734 72.1554V72.142ZM260.718 77.4687C260.541 77.2208 260.35 76.981 260.147 76.7504C261.048 76.9441 261.607 77.0571 261.607 77.0571C262.327 76.9452 263.067 77.0122 263.747 77.2508C263.967 77.6517 264.215 78.0399 264.489 78.413L266.863 82.5291C266.863 82.5291 266.346 82.5749 265.313 82.1229C264.279 81.6709 260.718 77.4687 260.718 77.4687ZM215.611 154.949L216.354 155.218C216.188 155.264 215.924 155.156 215.611 154.949Z" fill="url(#paint0_linear)"/>
<path d="M241.327 66.5166C242.283 67.0197 242.313 69.1692 242.166 70.8937C242.061 72.1554 241.865 73.1885 241.865 73.1885L248.083 86.7206C248.083 86.7206 250.388 77.0787 250.424 72.7742C250.427 72.4346 250.369 72.0967 250.253 71.7734C249.168 68.6715 243.074 66.9498 241.327 66.5166Z" fill="#67647E"/>
<path d="M240.88 66.409C240.88 66.409 241.048 66.444 241.339 66.5166C241.2 66.4446 241.041 66.4074 240.88 66.409V66.409Z" fill="#67647E"/>
<path d="M243.034 231.143L245.538 232.757C245.538 232.757 247.092 232.757 247.092 234.013C247.092 235.27 250.896 236.523 250.896 236.523C250.896 236.523 256.558 237.957 260.916 236.523C262.328 236.058 262.761 235.262 262.596 234.29C262.25 232.265 259.29 229.496 257.159 227.465C255.72 226.096 255.056 224.28 254.773 222.709C254.565 221.585 254.508 220.442 254.605 219.306L245.439 218.722C245.964 219.96 245.964 221.328 245.439 222.566C245.238 223.009 244.968 223.424 244.636 223.798C243.518 225.068 243.134 227.062 243.025 228.641C242.963 229.474 242.966 230.31 243.034 231.143V231.143Z" fill="#67647E"/>
<path d="M224.197 234.863C224.197 234.863 224.898 236.747 231.461 237.376C238.025 238.006 237.072 233.653 237.072 233.653C237.072 233.653 237.105 233.529 237.147 233.306C237.432 231.834 237.441 230.33 237.171 228.856C236.943 227.71 237.141 225.722 237.427 223.901C237.763 221.732 238.223 219.798 238.223 219.798L228.053 220.47C228.053 220.47 227.876 222.324 227.774 224.197C227.741 224.78 227.714 225.364 227.705 225.897C227.657 226.705 227.353 227.485 226.827 228.143C225.623 229.734 224.796 231.528 224.399 233.416C224.311 233.84 224.249 234.267 224.212 234.697C224.197 234.804 224.197 234.863 224.197 234.863Z" fill="#67647E"/>
<path d="M243.035 231.143L245.538 232.757C245.538 232.757 247.092 232.757 247.092 234.013C247.092 235.27 250.896 236.523 250.896 236.523C250.896 236.523 256.558 237.957 260.916 236.523C262.328 236.058 262.761 235.262 262.596 234.29C262.461 234.29 262.331 234.307 262.223 234.309C260.438 234.36 258.701 234.791 256.925 234.933C255.913 235 254.897 235.015 253.884 234.976C253.381 234.973 252.878 234.938 252.381 234.872C251.179 234.681 250.064 234.124 248.991 233.578C248.729 233.467 248.497 233.305 248.315 233.104C248.17 232.88 248.069 232.637 248.014 232.383C247.636 231.167 246.578 230.193 245.364 229.553C244.625 229.176 243.842 228.874 243.028 228.652C242.965 229.481 242.967 230.314 243.035 231.143V231.143Z" fill="#67647E"/>
<path d="M224.197 234.863C224.197 234.863 224.898 236.747 231.461 237.376C238.025 238.006 237.072 233.653 237.072 233.653C237.072 233.653 237.105 233.529 237.147 233.306C236.847 233.446 236.591 233.575 236.474 233.634C235.873 233.949 235.335 234.382 234.71 234.675C233.207 235.383 231.404 235.173 229.709 234.944C228.913 234.837 228.116 234.729 227.323 234.597C226.718 234.523 226.129 234.367 225.577 234.134C225.166 233.92 224.773 233.681 224.399 233.419C224.311 233.842 224.249 234.27 224.212 234.699C224.197 234.804 224.197 234.863 224.197 234.863Z" fill="#67647E"/>
<path opacity="0.1" d="M243.035 231.143L245.538 232.757C245.538 232.757 247.092 232.757 247.092 234.013C247.092 235.27 250.896 236.523 250.896 236.523C250.896 236.523 256.558 237.957 260.916 236.523C262.328 236.058 262.761 235.262 262.596 234.29C262.461 234.29 262.331 234.307 262.223 234.309C260.438 234.36 258.701 234.791 256.925 234.933C255.913 235 254.897 235.015 253.884 234.976C253.381 234.973 252.878 234.938 252.381 234.872C251.179 234.681 250.064 234.124 248.991 233.578C248.729 233.467 248.497 233.305 248.315 233.104C248.17 232.88 248.069 232.637 248.014 232.383C247.636 231.167 246.578 230.193 245.364 229.553C244.625 229.176 243.842 228.874 243.028 228.652C242.965 229.481 242.967 230.314 243.035 231.143V231.143Z" fill="black"/>
<path opacity="0.1" d="M224.197 234.863C224.197 234.863 224.898 236.747 231.461 237.376C238.025 238.006 237.072 233.653 237.072 233.653C237.072 233.653 237.105 233.529 237.147 233.306C236.847 233.446 236.591 233.575 236.474 233.634C235.873 233.949 235.335 234.382 234.71 234.675C233.207 235.383 231.404 235.173 229.709 234.944C228.913 234.837 228.116 234.729 227.323 234.597C226.718 234.523 226.129 234.367 225.577 234.134C225.166 233.92 224.773 233.681 224.399 233.419C224.311 233.842 224.249 234.27 224.212 234.699C224.197 234.804 224.197 234.863 224.197 234.863Z" fill="black"/>
<path opacity="0.1" d="M245.439 218.722C245.964 219.96 245.964 221.328 245.439 222.566C248.068 222.967 252.97 223.777 254.773 222.709C254.565 221.585 254.508 220.442 254.605 219.306L245.439 218.722Z" fill="black"/>
<path opacity="0.1" d="M227.777 224.197C229.634 224.315 234.632 224.549 237.43 223.901C237.766 221.732 238.226 219.798 238.226 219.798L228.056 220.47C228.056 220.47 227.879 222.324 227.777 224.197Z" fill="black"/>
<path d="M220.444 161.465C220.444 161.465 220.6 163.146 220.849 165.5C221.411 170.843 222.448 179.664 223.254 180.383C224.408 181.418 223.906 189.032 223.455 190.377C223.004 191.722 223.455 201.407 223.455 201.407C224.589 205.453 225.145 209.611 225.108 213.782C224.958 220.239 227.061 223.602 227.061 223.602C227.061 223.602 236.979 224.409 239.031 222.693C241.084 220.976 239.031 207.326 239.031 207.326C239.031 207.326 235.317 196.169 236.218 194.555C237.12 192.941 238.172 189.04 238.172 189.04V175.454C239.629 173.302 240.276 170.343 240.555 167.668C240.778 165.381 240.785 163.081 240.576 160.792C240.576 160.792 242.442 164.209 244.345 167.588C246.064 170.641 247.813 173.662 248.252 174.109C249.153 175.051 248.402 179.355 248.252 181.507C248.101 183.659 249.905 187.964 249.905 187.964C247.651 189.174 247.2 203.433 247.2 203.433C247.2 203.433 248.853 206.93 245.397 210.831C241.941 214.732 243.293 222.13 243.744 221.861C244.195 221.592 253.361 223.879 255.164 221.861C256.967 219.844 258.92 214.329 258.92 214.329C258.92 214.329 258.019 208.679 259.972 203.567C261.421 199.78 263.197 190.899 264.02 186.549C264.316 184.97 264.365 183.362 264.168 181.771C263.789 178.594 263.206 172.713 263.413 168.05C263.482 166.53 263.434 164.115 263.32 161.282C262.932 151.57 261.76 136.978 261.76 136.978L253.616 132.038L248.24 128.778L246.923 128.958L222.394 132.35L221.441 143.181L220.444 161.465Z" fill="#444053"/>
<path opacity="0.1" d="M253.622 132.044L254.052 134.158C254.052 134.158 257.658 149.627 258.41 157.564C259.161 165.5 262.316 163.213 262.316 163.213C262.592 162.547 262.929 161.902 263.326 161.287C262.938 151.575 261.766 136.983 261.766 136.983L253.622 132.044Z" fill="black"/>
<path d="M227.858 73.358C227.858 73.358 244.687 85.4185 241.58 82.9973C239.879 81.6683 241.036 76.0025 242.43 71.16C243.578 67.165 244.886 63.7268 244.886 63.7268C244.886 63.7268 230.196 51.4241 231.263 61.4831C231.638 65.0289 231.326 67.5497 230.764 69.3306C229.733 72.594 227.858 73.358 227.858 73.358Z" fill="#EFB7B9"/>
<path opacity="0.1" d="M229.258 70.1512L239.927 77.6167L243.031 74.5229C243.031 74.5229 245.688 73.4925 245.887 74.6574C246.085 75.8223 246.839 82.9973 245.285 83.6698C243.732 84.3424 241.73 84.7917 239.978 84.5684C238.226 84.3451 236.27 82.5937 234.968 81.9212C233.667 81.2486 228.859 77.7512 228.859 77.7512L226.454 74.7489L229.258 70.1512Z" fill="black"/>
<path d="M229.258 70.4202L239.927 77.8857L243.031 74.7919C243.031 74.7919 245.688 73.7615 245.887 74.9264C246.085 76.0913 246.839 83.2663 245.285 83.9389C243.732 84.6114 241.73 85.0607 239.978 84.8374C238.226 84.6141 236.27 82.8627 234.968 82.1902C233.667 81.5176 228.859 78.0202 228.859 78.0202L226.454 75.0179L229.258 70.4202Z" fill="#A36468"/>
<path opacity="0.1" d="M220.444 161.465C220.444 161.465 220.6 163.146 220.849 165.5C224.155 165.613 230.569 165.963 235.07 167.017C236.867 167.415 238.708 167.631 240.558 167.66C240.781 165.373 240.788 163.073 240.579 160.784C240.579 160.784 242.445 164.201 244.348 167.58C245.975 167.481 247.594 167.294 249.195 167.017L247.191 143.701C247.191 143.701 247.257 135.875 246.926 128.95L222.394 132.35L221.441 143.181L220.444 161.465Z" fill="black"/>
<path opacity="0.1" d="M238.875 76.9899C238.875 76.9899 231.587 69.8579 229.859 70.9905C228.131 72.1232 227.013 74.8834 227.013 74.8834L232.949 80.7105L238.875 76.9899Z" fill="black"/>
<path d="M238.575 76.7208C238.575 76.7208 231.287 69.5889 229.559 70.7215C227.831 71.8541 226.713 74.6144 226.713 74.6144L232.648 80.4415L238.575 76.7208Z" fill="#A36468"/>
<path opacity="0.1" d="M244.633 81.2916L240.426 76.5702C240.426 76.5702 241.087 72.107 242.626 72.6773C244.164 73.2477 244.633 75.5317 244.633 75.5317V81.2916Z" fill="black"/>
<path d="M244.934 80.9795L240.747 76.2581C240.747 76.2581 241.409 71.7949 242.947 72.3653C244.486 72.9356 244.934 75.2197 244.934 75.2197V80.9795Z" fill="#A36468"/>
<path opacity="0.1" d="M225.652 72.5052C225.652 72.5052 234.28 80.845 239.431 81.4046C239.897 81.4557 240.363 81.5257 240.823 81.6091C242.169 81.8458 245.102 81.6091 244.636 74.7139L245.285 73.4925L249.295 75.6905L250.647 85.553L253.051 110.842L256.606 139.001C256.606 139.001 245.688 138.059 242.632 140.526C239.575 142.993 238.725 127.075 238.725 127.075L230.361 94.7914L221.445 74.0306L225.652 72.5052Z" fill="black"/>
<path opacity="0.1" d="M221.445 75.1067L230.361 95.8676L238.725 128.151C238.725 128.151 239.578 144.067 242.632 141.602C243.63 140.795 245.469 140.354 247.491 140.125C249.978 139.885 252.484 139.834 254.981 139.975C255.978 140.023 256.606 140.077 256.606 140.077L253.048 111.918L250.644 86.6291L249.292 76.7666L245.285 74.5686L244.633 75.79C244.633 75.9702 244.654 76.1478 244.663 76.3281C244.946 82.6986 242.13 82.9246 240.823 82.6933C240.36 82.6099 239.897 82.5399 239.428 82.4888C235.78 82.0879 230.388 77.7916 227.554 75.3219C226.385 74.2996 225.649 73.5894 225.649 73.5894L221.445 75.1067Z" fill="black"/>
<path d="M221.445 74.2996L230.361 95.0605L238.725 127.344C238.725 127.344 239.578 143.26 242.632 140.795C243.63 139.988 245.469 139.547 247.491 139.318C249.978 139.078 252.484 139.027 254.981 139.168C255.978 139.216 256.606 139.27 256.606 139.27L253.048 111.111L250.644 85.822L249.292 75.9595L245.285 73.7615L244.633 74.9829C244.633 75.1632 244.654 75.3407 244.663 75.521C244.946 81.8916 242.13 82.1175 240.823 81.8862C240.36 81.8028 239.897 81.7328 239.428 81.6817C235.78 81.2809 230.388 76.9845 227.554 74.5148C226.385 73.4925 225.649 72.7823 225.649 72.7823L221.445 74.2996Z" fill="#AFBEDC"/>
<path opacity="0.1" d="M244.633 74.9829C244.633 75.1632 244.654 75.3407 244.663 75.521L244.732 75.564C245.79 76.1882 247.488 86.7287 247.488 86.7287L249.691 113.586L253.748 133.628C253.748 133.628 254.28 135.912 254.977 139.176C255.975 139.224 256.603 139.278 256.603 139.278L253.048 111.111L250.644 85.822L249.291 75.9595L245.285 73.7615L244.633 74.9829Z" fill="black"/>
<path d="M241.874 73.1885C241.874 73.1885 244.279 74.9318 245.337 75.556C246.394 76.1801 248.092 86.7206 248.092 86.7206L250.295 113.578L254.352 133.62C254.352 133.62 257.959 149.089 258.71 157.026C259.461 164.962 262.617 162.675 262.617 162.675C262.617 162.675 264.973 156.488 270.581 156.13C276.189 155.772 273.286 152.945 273.286 152.945C273.286 152.945 270.001 131.753 267.84 127.979C267.806 127.914 267.768 127.851 267.726 127.79C267.407 127.322 267.056 126.389 266.686 125.14C264.549 117.92 261.818 100.121 261.818 100.121L260.114 78.0606C255.753 71.6981 242.229 71.9187 242.229 71.9187L241.874 73.1885Z" fill="#67647E"/>
<path opacity="0.1" d="M221.445 74.2996L230.361 95.0605L238.725 127.344C238.725 127.344 239.578 143.259 242.632 140.795C243.63 139.988 245.469 139.547 247.491 139.318C247.455 133.846 247.269 124.027 246.388 119.9C245.626 116.129 245.308 112.297 245.439 108.466L234.518 87.1672C234.518 87.1672 226.304 78.1036 226.253 76.8069C226.235 76.3281 226.818 75.4403 227.557 74.5067C226.388 73.4844 225.652 72.7742 225.652 72.7742L221.445 74.2996Z" fill="black"/>
<path d="M248.892 166.487L246.89 143.171C246.89 143.171 247.041 125.773 245.787 119.9C245.023 116.129 244.704 112.297 244.835 108.466L233.916 87.1672C233.916 87.1672 225.703 78.1036 225.652 76.8069C225.601 75.5102 229.952 71.1977 229.952 71.1977C229.952 71.1977 220.444 72.1931 219.191 76.0025C217.937 79.812 211.076 81.2943 211.076 81.2943C211.076 81.2943 207.77 83.9846 207.822 91.6976C207.873 99.4106 218.34 105.461 218.34 105.461C218.34 105.461 220.092 119.989 218.59 126.537C217.087 133.085 218.388 164.916 218.388 164.916C218.388 164.916 228.456 165.008 234.767 166.487C241.078 167.967 248.892 166.487 248.892 166.487Z" fill="#67647E"/>
<path d="M234.067 129.496L226.352 155.635C226.352 155.635 225.3 157.967 219.891 156.173C214.481 154.378 198.755 148.551 198.755 148.551C198.755 148.551 197.351 146.488 199.957 142.678L207.822 122.052L234.067 129.496Z" fill="#B07473"/>
<path d="M224.089 141.053L211.617 128.778L203.653 125.886L200.383 140.647L215.524 155.377L224.089 141.053Z" fill="#E1E7EF"/>
<path d="M210.761 145.153C210.761 145.153 214.469 147.104 215.446 147.171C216.423 147.238 219.873 153.068 218.415 153.023C216.958 152.977 213.568 151.408 213.907 152.215C214.247 153.023 216.456 155.444 217.099 155.215C217.742 154.986 218.039 156.991 215.296 156.291C212.552 155.592 208.909 154.978 208.909 154.978C208.909 154.978 206.956 153.7 206.881 152.794C206.806 151.887 205.117 147.109 205.117 147.109L210.761 145.153Z" fill="#EFB7B9"/>
<path d="M270.298 76.2823C270.298 76.2823 267.089 70.0812 265.171 68.0285C263.254 65.9759 254.89 63.7725 254.052 64.3778C253.213 64.9832 258.259 68.3837 259.161 68.8195C260.062 69.2553 253.334 73.3042 253.198 73.393C253.063 73.4817 247.939 72.984 250.569 74.5309C253.198 76.0779 260.973 77.6544 260.973 77.6544C261.496 77.573 262.033 77.588 262.55 77.6986C263.066 77.8091 263.553 78.0129 263.978 78.2973C265.484 79.2766 270.298 76.2823 270.298 76.2823Z" fill="#EFB7B9"/>
<path opacity="0.1" d="M203.53 145.466C203.955 146.713 204.525 147.917 205.231 149.057C205.982 148.449 213.156 146.332 213.156 146.332L212.36 145.231L211.061 143.44C211.061 143.44 204.666 142.197 203.578 143.44C203.211 143.857 203.278 144.626 203.53 145.466Z" fill="black"/>
<path d="M203.229 145.196C203.654 146.444 204.224 147.647 204.93 148.788C205.682 148.18 212.855 146.063 212.855 146.063L212.059 144.962L210.761 143.171C210.761 143.171 204.365 141.928 203.278 143.171C202.911 143.588 202.977 144.357 203.229 145.196Z" fill="#A36468"/>
<path opacity="0.1" d="M262.966 77.684C263.196 78.1457 263.467 78.5901 263.777 79.013C264.934 80.646 266.686 82.5722 266.686 82.5722C266.686 82.5722 273.52 79.7582 273.52 79.6344C273.52 79.5107 271.446 76.5863 269.76 74.2808C269.078 73.3499 268.462 72.5267 268.072 72.0451C268.072 72.0451 265.52 76.8231 263.002 76.8554C262.343 76.8634 262.695 77.1002 262.966 77.684Z" fill="black"/>
<path d="M263.266 77.953C263.496 78.4147 263.768 78.8591 264.077 79.282C265.235 80.915 266.987 82.8412 266.987 82.8412C266.987 82.8412 273.821 80.0272 273.821 79.9034C273.821 79.7797 271.747 76.8554 270.061 74.5498C269.379 73.6189 268.763 72.7957 268.372 72.3142C268.372 72.3142 265.821 77.0921 263.302 77.1244C262.644 77.1325 262.996 77.3692 263.266 77.953Z" fill="#A36468"/>
<path d="M224.726 127.298L225.604 124.944L213.288 124.169L217.889 124.608L223.75 125.732L223.299 127.298H224.726Z" fill="#B07473"/>
<path opacity="0.1" d="M203.229 145.197C204.588 144.623 208.212 143.432 212.059 144.962L210.761 143.171C210.761 143.171 204.365 141.928 203.278 143.171C202.911 143.588 202.977 144.357 203.229 145.197Z" fill="black"/>
<path d="M202.511 130.661C202.541 131.051 202.568 131.441 202.595 131.829C202.67 133.015 202.722 134.191 202.755 135.326C202.905 140.583 202.661 144.919 202.661 144.919C202.661 144.919 207.32 142.409 212.278 144.516L212.777 136.009V135.861L213.285 132.141L214.932 120.123C214.932 120.123 218.037 103.443 218.989 102.817C219.942 102.19 211.927 88.6926 211.927 88.6926L207.819 91.6976L205.264 107.121V115.012C205.264 115.012 201.958 123.577 202.511 130.661Z" fill="#67647E"/>
<path opacity="0.1" d="M263.119 77.5737L264.081 79.282C265.238 80.915 266.99 82.8412 266.99 82.8412C266.99 82.8412 273.824 80.0272 273.824 79.9034C273.824 79.7797 271.75 76.8554 270.064 74.5498C269.544 74.0117 269.229 73.7158 269.229 73.7158C271.233 78.1548 263.119 77.5737 263.119 77.5737Z" fill="black"/>
<path d="M257.307 76.8069L260.114 78.066C260.114 78.066 263.57 82.2359 264.57 82.6852C265.571 83.1345 266.073 83.0887 266.073 83.0887L263.119 77.8427C263.119 77.8427 271.233 78.4238 269.229 73.9848C269.229 73.9848 278.296 82.8627 279.296 86.4516C279.296 86.4516 284.306 93.8929 283.104 97.5705C281.902 101.248 277.042 101.964 273.535 100.845C270.028 99.7254 259.26 94.7914 259.26 94.7914L257.307 76.8069Z" fill="#67647E"/>
<path opacity="0.1" d="M267.374 85.553C267.374 85.553 274.939 93.1315 274.338 94.1619C273.737 95.1923 267.774 87.0784 267.374 85.553Z" fill="black"/>
<path opacity="0.2" d="M233.24 65.1526C233.24 65.1526 222.596 62.2821 216.585 72.6397C210.574 82.9973 210.373 83.7156 210.674 84.2079C210.974 84.7002 222.644 81.9669 223.296 83.1775C223.948 84.3881 216.684 89.3651 216.684 89.3651L244.832 108.466L233.006 85.9646C232.211 84.3884 231.15 82.9304 229.862 81.6414C227.918 79.6936 225.258 76.7101 226.199 75.79C227.028 74.9829 228.357 72.8764 230.148 70.4525C231.461 68.6742 233.547 66.67 233.24 65.1526Z" fill="black"/>
<path d="M233.541 64.8836C233.541 64.8836 222.896 62.0131 216.885 72.3707C210.875 82.7282 210.674 83.4465 210.974 83.9389C211.275 84.4312 222.944 81.6979 223.596 82.9085C224.248 84.1191 216.985 89.0961 216.985 89.0961L244.832 108.466L233.306 85.6956C232.511 84.1194 231.451 82.6614 230.163 81.3723C228.218 79.4246 225.559 76.441 226.499 75.521C227.329 74.7139 228.657 72.6074 230.448 70.1835C231.762 68.4052 233.847 66.4009 233.541 64.8836Z" fill="#67647E"/>
<path opacity="0.1" d="M233.541 64.8836C233.541 64.8836 222.896 62.0131 216.885 72.3707C210.875 82.7282 210.674 83.4465 210.974 83.9389C211.275 84.4312 222.944 81.6979 223.596 82.9085C224.248 84.1191 216.985 89.0961 216.985 89.0961L244.832 108.466L232.753 84.6007C232.286 83.6729 231.652 82.8197 230.878 82.0745C228.976 80.2397 225.436 76.5621 226.499 75.521C227.329 74.7139 228.657 72.6074 230.448 70.1835C231.762 68.4052 233.847 66.4009 233.541 64.8836Z" fill="black"/>
<path d="M231.362 112.364C232.579 112.364 233.565 111.481 233.565 110.392C233.565 109.303 232.579 108.42 231.362 108.42C230.145 108.42 229.159 109.303 229.159 110.392C229.159 111.481 230.145 112.364 231.362 112.364Z" fill="#444053"/>
<path d="M231.362 124.605C232.579 124.605 233.565 123.722 233.565 122.633C233.565 121.544 232.579 120.661 231.362 120.661C230.145 120.661 229.159 121.544 229.159 122.633C229.159 123.722 230.145 124.605 231.362 124.605Z" fill="#444053"/>
<path d="M202.755 135.326C204.023 135.595 210.036 135.474 212.771 136.009V135.861L213.279 132.141C210.196 131.796 203.494 131.142 202.586 131.828C201.411 132.724 201.243 135.016 202.755 135.326Z" fill="#67647E"/>
<path opacity="0.1" d="M202.755 135.595C204.023 135.864 210.036 135.743 212.771 136.278V136.13L213.279 132.41C210.196 132.065 203.494 131.411 202.586 132.098C201.411 132.993 201.243 135.286 202.755 135.595Z" fill="black"/>
<path opacity="0.1" d="M202.755 135.326C204.023 135.595 210.036 135.474 212.771 136.009V135.861L213.279 132.141C210.196 131.796 203.494 131.142 202.586 131.828C201.411 132.724 201.243 135.016 202.755 135.326Z" fill="black"/>
<path d="M204.065 134.718C204.799 134.718 205.393 134.185 205.393 133.529C205.393 132.872 204.799 132.34 204.065 132.34C203.331 132.34 202.737 132.872 202.737 133.529C202.737 134.185 203.331 134.718 204.065 134.718Z" fill="#444053"/>
<path opacity="0.1" d="M229.159 138.282L223.548 155.411C223.548 155.411 222.046 156.038 222.046 154.919C222.046 153.8 229.159 138.282 229.159 138.282Z" fill="white"/>
<path opacity="0.1" d="M231.311 68.4886C231.665 68.7431 232.035 68.9793 232.42 69.1961C234.328 70.2722 236.026 71.7357 238.46 71.7357C239.811 71.7375 241.152 71.5403 242.43 71.152C243.578 67.1569 244.886 63.7187 244.886 63.7187C244.886 63.7187 230.196 51.4161 231.263 61.475C231.638 65.0208 231.873 66.7076 231.311 68.4886Z" fill="black"/>
<path d="M226.121 60.1514C226.121 62.3362 226.844 64.4718 228.2 66.2884C229.556 68.105 231.483 69.5208 233.738 70.3569C235.993 71.1929 238.474 71.4117 240.868 70.9854C243.261 70.5592 245.46 69.5072 247.186 67.9623C248.912 66.4175 250.087 64.4492 250.563 62.3064C251.039 60.1637 250.795 57.9426 249.861 55.9242C248.927 53.9057 247.345 52.1805 245.316 50.9668C243.287 49.753 240.901 49.1051 238.46 49.1051C236.838 49.0984 235.23 49.3795 233.729 49.9322C232.229 50.4849 230.865 51.2983 229.718 52.3254C228.571 53.3525 227.662 54.5729 227.045 55.9162C226.427 57.2594 226.113 58.6989 226.121 60.1514V60.1514Z" fill="#EFB7B9"/>
<path d="M245.454 69.3979C245.567 69.6506 245.77 69.8632 246.031 70.0032L247.99 71.0793L251.654 73.0728L257.451 76.2258C257.587 76.2994 257.725 76.3666 257.866 76.4276C258.545 76.7367 259.295 76.9022 260.057 76.9115C260.819 76.9209 261.574 76.7737 262.262 76.4814C262.783 76.2719 263.24 75.9549 263.597 75.5565C263.954 75.158 264.2 74.6894 264.315 74.1893C264.469 73.493 264.404 72.7721 264.127 72.1069C263.85 71.4418 263.372 70.8588 262.746 70.4229C262.715 70.3988 262.678 70.3814 262.638 70.3718C261.404 70.0618 260.243 69.5541 259.212 68.8733L255.563 66.6135L252.306 63.9474L250.659 62.9278C250.418 62.778 250.133 62.6933 249.84 62.6838C249.546 62.6743 249.256 62.7403 249.003 62.874C247.314 63.7483 243.951 65.9974 245.454 69.3979Z" fill="#E1E7EF"/>
<path d="M247.99 71.0632L251.654 73.0567C252.417 70.3018 254.358 68.3568 256.044 66.8879L252.306 63.9286C249.463 65.1903 248.333 69.3979 247.99 71.0632Z" fill="#A36468"/>
<path opacity="0.1" d="M257.857 76.4114C258.536 76.7205 259.286 76.886 260.048 76.8954C260.81 76.9047 261.565 76.7576 262.253 76.4653C262.774 76.2558 263.231 75.9388 263.588 75.5403C263.945 75.1418 264.191 74.6733 264.306 74.1731C264.46 73.4769 264.395 72.7559 264.118 72.0908C263.841 71.4257 263.363 70.8426 262.737 70.4068C261.827 70.7515 260.985 71.2247 260.243 71.8084C259.207 72.6111 258.457 73.668 258.085 74.8484C257.938 75.3591 257.861 75.884 257.857 76.4114V76.4114Z" fill="black"/>
<path opacity="0.1" d="M226.121 60.1514C226.118 61.7602 226.51 63.3499 227.269 64.8083C228.013 65.4718 228.58 66.2775 228.928 67.165C229.763 68.0743 230.091 68.5881 231.206 69.2176C231.653 68.7953 232.663 68.5397 232.847 67.9936C233.312 66.5866 233.048 65.0827 233.024 63.6165C233.024 62.9654 233.126 62.196 233.766 61.884C234.298 61.6149 234.968 61.8086 235.491 62.0723C236.014 62.3359 236.534 62.6776 237.135 62.7395C238.037 62.8309 238.86 62.2633 239.365 61.5961C239.87 60.9289 240.161 60.1487 240.639 59.4654C241.27 58.5641 242.202 57.8727 243.119 57.2002C244.167 56.4254 245.186 55.5672 246.304 54.8731C246.971 54.4561 247.771 54.2624 248.429 53.8427L248.534 53.7728C247.022 51.8587 244.868 50.4252 242.385 49.6796C239.902 48.9339 237.218 48.9149 234.722 49.6253C232.226 50.3356 230.047 51.7384 228.501 53.6308C226.955 55.5231 226.121 57.8068 226.121 60.1514V60.1514Z" fill="black"/>
<path d="M250.434 47.9402C250.172 46.3906 248.739 44.9352 246.989 44.9083C245.544 44.8868 244.312 45.7638 243.031 46.3637C241.72 46.9686 240.276 47.3063 238.802 47.3528C237.328 47.3994 235.861 47.1535 234.505 46.6328C233.721 46.3234 232.922 45.9118 232.065 45.9763C231.209 46.0409 230.526 46.5413 229.931 47.0524C228.527 48.2985 227.426 49.7916 226.698 51.4376C226.484 51.9219 226.289 52.4357 225.874 52.8016C225.556 53.0357 225.211 53.2403 224.846 53.4123C224.218 53.7857 223.679 54.2676 223.262 54.8298C222.844 55.392 222.557 56.0232 222.415 56.6863C222.144 58.02 222.297 59.3949 222.857 60.6545C223.196 61.5182 223.747 62.3026 224.471 62.9493C225.018 63.4093 225.673 63.7564 226.247 64.1841C227.182 64.8963 227.894 65.8131 228.316 66.8451C228.737 67.8772 228.853 68.9893 228.651 70.0732C230.25 70.4014 231.783 69.1208 232.258 67.7138C232.732 66.3068 232.459 64.8056 232.435 63.3367C232.435 62.6857 232.537 61.9189 233.177 61.6068C233.709 61.3378 234.379 61.5315 234.902 61.7952C235.425 62.0588 235.942 62.3978 236.546 62.4624C237.448 62.5538 238.271 61.9862 238.776 61.319C239.281 60.6518 239.569 59.8716 240.05 59.1883C240.678 58.287 241.613 57.5956 242.53 56.9231C243.578 56.1483 244.597 55.2901 245.712 54.596C246.382 54.179 247.182 53.9853 247.84 53.5656C249.817 52.2985 250.434 49.9741 250.434 47.9402Z" fill="#585268"/>
<path opacity="0.1" d="M240.88 66.409C240.88 66.409 241.048 66.444 241.339 66.5166C241.2 66.4446 241.041 66.4074 240.88 66.409V66.409Z" fill="black"/>
<g opacity="0.1">
<path opacity="0.1" d="M231.644 66.8448C232.11 65.4378 231.846 63.9339 231.822 62.4677C231.822 61.8167 231.924 61.0473 232.564 60.7352C233.096 60.4662 233.766 60.6599 234.289 60.9235C234.812 61.1872 235.329 61.5288 235.933 61.5907C236.835 61.6822 237.658 61.1172 238.163 60.4473C238.668 59.7775 238.956 59 239.437 58.3166C240.065 57.4154 241 56.724 241.917 56.0514C242.965 55.2793 243.984 54.4184 245.099 53.7243C245.769 53.3074 246.569 53.1137 247.227 52.694C249.216 51.4188 249.832 49.0944 249.832 47.0632C249.765 46.6737 249.631 46.2961 249.433 45.9441C249.963 46.4909 250.309 47.1604 250.434 47.8757C250.434 49.9068 249.832 52.2312 247.828 53.5064C247.17 53.9261 246.37 54.1198 245.7 54.5368C244.585 55.2309 243.566 56.0918 242.518 56.8639C241.601 57.5365 240.666 58.2279 240.038 59.1291C239.557 59.8124 239.272 60.5926 238.764 61.2598C238.256 61.927 237.43 62.4946 236.534 62.4032C235.933 62.3413 235.422 61.9969 234.89 61.736C234.358 61.475 233.688 61.2894 233.165 61.5477C232.525 61.8597 232.411 62.6238 232.423 63.2802C232.447 64.7464 232.723 66.2395 232.246 67.6573C231.768 69.0751 230.244 70.3476 228.639 70.014C228.69 69.7615 228.721 69.5062 228.732 69.2499C230.07 69.1477 231.245 68.0528 231.644 66.8448Z" fill="black"/>
<path opacity="0.1" d="M223.87 62.0777C224.417 62.5377 225.072 62.8847 225.646 63.3125C226.278 63.7892 226.808 64.3643 227.212 65.0101C226.925 64.6842 226.602 64.3858 226.247 64.1196C225.67 63.6918 225.018 63.3448 224.471 62.8847C224.034 62.5092 223.665 62.0754 223.377 61.5988C223.529 61.7679 223.694 61.9279 223.87 62.0777V62.0777Z" fill="black"/>
</g>
<path opacity="0.1" d="M240.471 158.11C240.69 158.694 241.003 159.264 241.045 159.88C241.117 160.927 240.402 161.903 240.351 162.952C240.291 164.174 241.12 165.269 241.913 166.261C240.973 166.261 239.945 165.971 239.467 165.247C239.304 164.969 239.185 164.671 239.116 164.362C238.265 161.325 237.439 158.002 238.917 155.167C239.144 154.676 239.476 154.23 239.894 153.854C240.143 155.285 239.933 156.692 240.471 158.11Z" fill="black"/>
<path opacity="0.1" d="M263.978 136.674L266.476 133.658C267.077 132.929 267.699 132.17 267.915 131.285C268.15 130.314 267.876 129.308 267.84 128.326C267.84 128.215 267.84 128.102 267.84 127.989C267.806 127.925 267.768 127.862 267.726 127.801C267.407 127.333 267.056 126.4 266.686 125.151C266.322 125.475 266.039 125.865 265.857 126.295C264.694 128.834 265.769 131.815 264.808 134.419C264.531 135.167 264.08 135.883 263.978 136.674Z" fill="black"/>
<path opacity="0.1" d="M257.619 227.966C256.385 228.757 254.976 229.303 253.487 229.567C251.998 229.831 250.463 229.807 248.985 229.496" fill="black"/>
<path opacity="0.1" d="M236.928 228.41C236.296 228.939 235.549 229.348 234.734 229.609C233.919 229.87 233.053 229.979 232.189 229.928C231.325 229.878 230.482 229.669 229.711 229.316C228.941 228.962 228.26 228.47 227.711 227.871" fill="black"/>
<path opacity="0.1" d="M250.115 187.854C251.313 188.101 252.569 187.994 253.694 187.549C254.819 187.103 255.752 186.344 256.354 185.384" fill="black"/>
<path opacity="0.1" d="M235.87 194.652C233.966 194.777 232.071 194.311 230.505 193.334Z" fill="black"/>
<path opacity="0.1" d="M245.592 210.907C247.194 211.49 248.621 212.397 250.181 213.059C251.741 213.721 253.547 214.156 255.2 213.694" fill="black"/>
<path d="M159.082 214.896C173.21 214.896 184.663 211.939 184.663 208.292C184.663 204.644 173.21 201.687 159.082 201.687C144.954 201.687 133.501 204.644 133.501 208.292C133.501 211.939 144.954 214.896 159.082 214.896Z" fill="#5F5D7E"/>
<path opacity="0.1" d="M159.082 207.485C161.908 207.485 164.2 206.893 164.2 206.164C164.2 205.434 161.908 204.843 159.082 204.843C156.255 204.843 153.964 205.434 153.964 206.164C153.964 206.893 156.255 207.485 159.082 207.485Z" fill="black"/>
<path d="M161.495 171.324H156.236V206.164H161.495V171.324Z" fill="#5F5D7E"/>
<path opacity="0.1" d="M161.495 173.049V177.084C160.443 176.794 158.042 175.57 156.236 174.607V171.324H157.333L161.495 173.049Z" fill="black"/>
<path d="M149.104 156.157C149.104 156.157 166.469 152.156 170.79 149.162C175.112 146.168 192.083 160.259 189.841 165.573C187.599 170.886 179.437 174.741 179.437 174.741C179.437 174.741 156.861 178.029 153.02 171.171C149.179 164.314 149.104 156.157 149.104 156.157Z" fill="#474157"/>
<path opacity="0.1" d="M149.104 156.157C149.104 156.157 166.469 152.156 170.79 149.162C175.112 146.168 192.083 160.259 189.841 165.573C187.599 170.886 179.437 174.741 179.437 174.741C179.437 174.741 156.861 178.029 153.02 171.171C149.179 164.314 149.104 156.157 149.104 156.157Z" fill="black"/>
<path d="M147.602 154.543C147.602 154.543 164.966 150.542 169.288 147.548C173.609 144.554 190.58 158.645 188.338 163.958C186.096 169.272 177.934 173.127 177.934 173.127C177.934 173.127 155.358 176.414 151.517 169.557C147.677 162.699 147.602 154.543 147.602 154.543Z" fill="#474157"/>
<path opacity="0.1" d="M183.292 127.126C183.226 127.126 183.163 127.112 183.1 127.102C183.165 127.095 183.231 127.104 183.292 127.126V127.126Z" fill="black"/>
<path d="M131.848 142.63C130.114 142.251 125.332 141.901 123.057 148.732C122.528 150.318 121.853 151.863 121.041 153.351C118.856 157.362 116.04 165.608 128.437 167.424L158.189 173.477C158.189 173.477 174.117 175.225 175.169 174.553C176.221 173.88 176.071 172.401 176.071 172.401C176.071 172.401 158.49 172.401 155.034 167.558C151.578 162.716 151.427 156.124 151.427 156.124C151.427 156.124 151.86 145.947 133.696 142.99C133.083 142.891 132.464 142.764 131.848 142.63Z" fill="#474157"/>
<path opacity="0.1" d="M131.848 142.676C130.114 142.296 125.332 141.947 123.057 148.777C122.527 150.365 121.853 151.91 121.041 153.399C118.856 157.408 116.04 165.656 128.437 167.472L158.189 173.525C158.189 173.525 174.117 175.274 175.169 174.601C176.221 173.929 176.071 172.449 176.071 172.449C176.071 172.449 158.49 172.449 155.034 167.607C151.578 162.764 151.427 156.173 151.427 156.173C151.427 156.173 151.86 145.996 133.696 143.039C133.083 142.937 132.464 142.81 131.848 142.676Z" fill="black"/>
<path d="M194.217 135.67C194.044 134.685 193.479 133.79 192.625 133.15C191.771 132.511 190.687 132.17 189.573 132.192C185.754 132.256 174.848 132.671 168.2 135.302C166.739 135.88 165.276 136.442 163.773 136.916C162.415 137.349 160.795 138.04 159.992 139.033C159.19 140.026 140.308 153.023 167.506 165.532C167.506 165.532 182.081 169.248 187.791 160.531C187.791 160.531 191.848 151.166 191.548 147.924C191.247 144.683 194.253 135.939 194.253 135.939C194.253 135.939 194.247 135.848 194.217 135.67Z" fill="#474157"/>
<path opacity="0.1" d="M194.217 138.027C193.874 136.144 191.872 134.782 189.573 134.817C185.294 134.882 172.122 135.355 166.003 138.656C166.003 138.656 161.345 141.14 159.992 141.14C158.64 141.14 140.308 154.053 167.506 165.602C167.506 165.602 182.081 169.03 187.791 160.983C187.791 160.983 191.848 152.339 191.548 149.348C191.247 146.356 194.253 138.282 194.253 138.282C194.253 138.282 194.247 138.188 194.217 138.027Z" fill="black"/>
<path d="M179.677 165.54H174.869V174.706H179.677V165.54Z" fill="#5F5D7E"/>
<defs>
<linearGradient id="paint0_linear" x1="240.835" y1="238.049" x2="240.835" y2="44.0635" gradientUnits="userSpaceOnUse">
<stop stop-color="#808080" stop-opacity="0.25"/>
<stop offset="0.54" stop-color="#808080" stop-opacity="0.12"/>
<stop offset="1" stop-color="#808080" stop-opacity="0.1"/>
</linearGradient>
</defs>
</svg>
